<?xml version="1.0"?>
<svg xmlns:rdf="http://www.w3.org/1999/02/22-rdf-syntax-ns#" xmlns="http://www.w3.org/2000/svg" xmlns:cc="http://creativecommons.org/ns#" xmlns:dc="http://purl.org/dc/elements/1.1/" xmlns:svg="http://www.w3.org/2000/svg" id="svg2" viewBox="0 0 68.261 161.53" version="1.1">
  <g id="layer1" transform="translate(-589.27 -419.68)">
    <g id="g3638" transform="matrix(1.0811 0 0 1.0811 -53.346 -34.049)">
      <path id="path2830" fill="#7a2e11" d="m637.5 567.72c3.3067-15.692 6.8651-32.396 10.642-47.983 2.337-9.6454 4.4793-19.346 6.6511-29.025 1.1906-5.306 1.6326-10.66 2.0186-16.075 0.42611-5.9778 0.53093-12.13-0.36514-18.03-1.5786-10.394-2.9163-20.842-5.0267-31.16-0.21378-2.0162-3.4234-0.44801-4.9096-0.94173h-46.153c-4.1787 14.03-5.8311 28.526-5.3908 43.127 0.34867 6.8891 0.29743 13.881 1.4991 20.653 1.5058 8.4863 4.1648 16.739 6.2956 25.099 4.6305 18.168 8.7152 36.407 14.203 54.335 6.9009 1.4486 13.645 0.84256 20.536 0z"/>
      <path id="path3612" fill="#a55a2c" d="m607.61 425.56s-1.5398 9.067-2.0203 13.637c-0.5644 5.3684-1.0102 16.162-1.0102 16.162-0.43061 6.8898-0.48965 13.809-0.25254 20.708 0.10733 3.123 0.75762 9.3439 0.75762 9.3439 0.56042 6.9118 2.3662 13.668 3.7881 20.456 1.6663 7.954 5.5558 23.739 5.5558 23.739 2.4242 10.358 4.6191 20.774 7.3236 31.062 0.69082 2.628 2.2728 7.8287 2.2728 7.8287l4.9245 0.0631 2.7779-0.44194 5.6821-28.663c1.4222-7.1743 3.004-14.316 4.5457-21.466 1.4897-6.9083 4.5457-20.708 4.5457-20.708 0.52092-2.3731 1.2348-4.7007 1.7678-7.0711 0.56501-2.5126 1.5152-7.5761 1.5152-7.5761 0.69651-3.4826 0.96817-7.0553 1.0102-10.607 0.0419-3.5443-0.37149-7.0832-0.75762-10.607 0 0-1.2386-12.303-2.0203-18.435-0.59165-4.641-2.0203-13.89-2.0203-13.89l-0.4735-3.5671-37.912 0.0316v0.00001z"/>
      <path id="path3636" fill="#8b3513" d="m618.97 425.82-1.7678 22.476c-0.62044 7.8885-0.25987 15.83 0 23.739 0.21056 6.408 0.68869 12.807 1.2627 19.193l2.0203 22.476 3.5355 34.093 2.7779 21.213 1.894-0.25254s0.73013-9.4244 1.0102-14.142c0.3695-6.2253 0.59549-12.458 0.88389-18.688l0.63134-13.637c0.24359-5.2616 0.51253-10.522 0.75762-15.784 0.30387-6.5235 0.88388-19.572 0.88388-19.572 0.0684-1.515 0.12997-3.0303 0.1894-4.5457 0.11223-2.8618 0.31568-5.7223 0.31568-8.5863v-16.92s-0.16981-4.714-0.25254-7.0711c-0.12852-3.6617-0.27904-7.3228-0.37881-10.985-0.0573-2.1041-0.088-4.2089-0.12627-6.3134l-0.12627-6.9448-11.49-0.25254-2.0203 0.50508z"/>
      <path id="path2832" d="m602.68 513.61c8.2165 0.27341 16.427 0.83764 24.643 0.98215 7.734 0.13603 14.885-0.868 22.441-2.4197l-1.0498 5.1939c-7.096 1.7932-14.198 1.7815-21.481 2.1365-4.0133 0.19564-8.2439-0.0874-12.054-0.17857-3.8096-0.0912-10.804-0.35714-10.804-0.35714l-1.6964-5.3572z"/>
      <path id="path2834" d="m595.45 447.09s20.298 0.27486 30.446 0.17857c9.5859-0.091 28.75-0.71429 28.75-0.71429l0.80357 4.9107s-19.879 0.59522-29.821 0.71428c-10.237 0.12258-30.714 0-30.714 0l0.53572-5.0893z"/>
      <path id="path2830-1" stroke="#000" stroke-width="1px" fill="none" d="m637.5 567.72c3.3067-15.692 6.8651-32.396 10.642-47.983 2.337-9.6454 4.4793-19.346 6.6511-29.025 1.1906-5.306 1.454-10.57 1.84-15.986 0.42611-5.9778 0.7095-12.219-0.18657-18.119-1.5786-10.394-2.9163-20.842-5.0267-31.16-0.21378-2.0162-3.4234-0.44801-4.9096-0.94173h-46.153c-4.1787 14.03-5.8311 28.526-5.3908 43.127 0.34867 6.8891 0.29743 13.881 1.4991 20.653 1.5058 8.4863 4.1648 16.739 6.2956 25.099 4.6305 18.168 8.7152 36.407 14.203 54.335 6.9009 1.4486 13.645 0.84256 20.536 0z"/>
      <path id="path2836" stroke="#000" stroke-width=".9809px" fill="#ccae8c" d="m601.63 425.41c-0.99866 0.0597-2.0947 0.16104-2.996-0.0894-0.66897-0.1859-0.68185-0.89143-0.26468-1.5681 0.56267-0.91276 1.0284-2.0151 1.8283-2.6781 0.64328-0.53329 1.3503-0.87296 2.2562-0.85987 15.597 0.22528 31.284-0.25212 46.855 0.0879 1.0153 0.0222 2.0556 0.33908 2.8082 1.1834 0.57776 0.64816 1.2728 1.3538 1.4717 2.1321 0.16031 0.62733-0.50485 1.69-1.1409 1.7028-16.864 0.3376-33.878 0.0597-50.818 0.0894v-0.00003z"/>
    </g>
  </g>
  <metadata>
    <rdf:RDF>
      <cc:Work>
        <dc:format>image/svg+xml</dc:format>
        <dc:type rdf:resource="http://purl.org/dc/dcmitype/StillImage"/>
        <cc:license rdf:resource="http://creativecommons.org/licenses/publicdomain/"/>
        <dc:publisher>
          <cc:Agent rdf:about="http://openclipart.org/">
            <dc:title>Openclipart</dc:title>
          </cc:Agent>
        </dc:publisher>
        <dc:title>Atabaque</dc:title>
        <dc:date>2010-06-01T22:34:37</dc:date>
        <dc:description>An atabaque, a tall, wooden, Afro-Brazilian hand drum considered sacred in candombl&#xE9;. Um atabaque, instrumento de percuss&#xE3;o tocado com as m&#xE3;os e considerado sagrado no candombl&#xE9;.</dc:description>
        <dc:source>http://openclipart.org/detail/63991/atabaque-by-laobc</dc:source>
        <dc:creator>
          <cc:Agent>
            <dc:title>laobc</dc:title>
          </cc:Agent>
        </dc:creator>
        <dc:subject>
          <rdf:Bag>
            <rdf:li>brasil</rdf:li>
            <rdf:li>candomble</rdf:li>
            <rdf:li>capoeira</rdf:li>
            <rdf:li>clip art</rdf:li>
            <rdf:li>clipart</rdf:li>
            <rdf:li>music</rdf:li>
            <rdf:li>musical instrument</rdf:li>
            <rdf:li>religion</rdf:li>
          </rdf:Bag>
        </dc:subject>
      </cc:Work>
      <cc:License rdf:about="http://creativecommons.org/licenses/publicdomain/">
        <cc:permits rdf:resource="http://creativecommons.org/ns#Reproduction"/>
        <cc:permits rdf:resource="http://creativecommons.org/ns#Distribution"/>
        <cc:permits rdf:resource="http://creativecommons.org/ns#DerivativeWorks"/>
      </cc:License>
    </rdf:RDF>
  </metadata>
</svg>
