<?xml version="1.0" encoding="UTF-8" standalone="no"?>
<!-- Created with Inkscape (http://www.inkscape.org/) -->

<svg
   xmlns:dc="http://purl.org/dc/elements/1.1/"
   xmlns:cc="http://creativecommons.org/ns#"
   xmlns:rdf="http://www.w3.org/1999/02/22-rdf-syntax-ns#"
   xmlns:svg="http://www.w3.org/2000/svg"
   xmlns="http://www.w3.org/2000/svg"
   xmlns:sodipodi="http://sodipodi.sourceforge.net/DTD/sodipodi-0.dtd"
   xmlns:inkscape="http://www.inkscape.org/namespaces/inkscape"
   id="svg2"
   version="1.1"
   inkscape:version="0.91 r13725"
   xml:space="preserve"
   width="1143.608"
   height="810"
   viewBox="0 0 1143.6081 810"
   sodipodi:docname="publicdomainq-business-drinking-party.svg"
   inkscape:export-filename="/media/sdb1/_GRAFIKA/Publicdomainq/lidi/publicdomainq-business-drinking-party.png"
   inkscape:export-xdpi="88.930695"
   inkscape:export-ydpi="88.930695"><title
     id="title7598">Business drinking party</title><metadata
     id="metadata8"><rdf:RDF><cc:Work
         rdf:about=""><dc:format>image/svg+xml</dc:format><dc:type
           rdf:resource="http://purl.org/dc/dcmitype/StillImage" /><dc:title>Business drinking party</dc:title><cc:license
           rdf:resource="http://creativecommons.org/publicdomain/zero/1.0/" /><dc:subject><rdf:Bag><rdf:li>man</rdf:li><rdf:li>woman</rdf:li><rdf:li>male</rdf:li><rdf:li>female</rdf:li><rdf:li>work</rdf:li><rdf:li>party</rdf:li><rdf:li>office</rdf:li><rdf:li>drinking</rdf:li><rdf:li>alcohol</rdf:li><rdf:li>beer</rdf:li><rdf:li>fun</rdf:li><rdf:li>suit</rdf:li><rdf:li>tie</rdf:li><rdf:li>publicdomainq.net</rdf:li></rdf:Bag></dc:subject><dc:description>This image was adapted from a picture posted to publicdomainq.net. All of the images on these sites are in the public domain i.e. CC0. This site is only in Japanese but can be easily navigated with Google Translate.</dc:description></cc:Work><cc:License
         rdf:about="http://creativecommons.org/publicdomain/zero/1.0/"><cc:permits
           rdf:resource="http://creativecommons.org/ns#Reproduction" /><cc:permits
           rdf:resource="http://creativecommons.org/ns#Distribution" /><cc:permits
           rdf:resource="http://creativecommons.org/ns#DerivativeWorks" /></cc:License></rdf:RDF></metadata><defs
     id="defs6"><clipPath
       clipPathUnits="userSpaceOnUse"
       id="clipPath210"><path
         d="m 1978.01,431.859 -39.71,0 c -15.6,0 -33.18,5.871 -39.08,13.051 -5.89,7.172 -10.72,33.531 -10.72,49.129 l 0,329.395 89.7,0 0,-391.575 c -0.06,0 -0.13,0 -0.19,0 m 30.19,9.602 0,381.973 19.61,0 0,-329.395 c 0,-15.598 -2.1,-33.918 -4.67,-40.73 -1.15,-3.039 -7.2,-7.668 -14.94,-11.848"
         id="path212"
         inkscape:connector-curvature="0" /></clipPath><linearGradient
       x1="0"
       y1="0"
       x2="1"
       y2="0"
       gradientUnits="userSpaceOnUse"
       gradientTransform="matrix(137.135,-376.776,-376.776,-137.135,1893.43,825.234)"
       spreadMethod="pad"
       id="linearGradient214"><stop
         style="stop-opacity:1;stop-color:#f3652c"
         offset="0"
         id="stop216" /><stop
         style="stop-opacity:1;stop-color:#fcd51f"
         offset="1"
         id="stop218" /></linearGradient><clipPath
       clipPathUnits="userSpaceOnUse"
       id="clipPath228"><path
         d="m 1978.2,431.859 0,391.575 30,0 0,-381.973 c -9.45,-5.102 -21.41,-9.539 -30,-9.602"
         id="path230"
         inkscape:connector-curvature="0" /></clipPath><linearGradient
       x1="0"
       y1="0"
       x2="1"
       y2="0"
       gradientUnits="userSpaceOnUse"
       gradientTransform="matrix(137.135,-376.776,-376.776,-137.135,1893.43,825.234)"
       spreadMethod="pad"
       id="linearGradient232"><stop
         style="stop-opacity:1;stop-color:#fcdbc4"
         offset="0"
         id="stop234" /><stop
         style="stop-opacity:1;stop-color:#fef5cc"
         offset="1"
         id="stop236" /></linearGradient><clipPath
       clipPathUnits="userSpaceOnUse"
       id="clipPath266"><path
         d="m 119.957,422.52 c -14.68,0 -27.1836,11.429 -28.2734,26.281 L 64.4688,821.117 c -0.6211,8.469 2.5976,16.379 8.1718,22.008 4.6563,4.703 10.9532,7.813 18.0313,8.336 L 234.617,861.98 265.973,433.109 122.02,422.59 c -0.692,-0.051 -1.379,-0.07 -2.063,-0.07 m 185.91,13.511 -31.355,428.864 7.644,0.558 c 0.699,0.051 1.395,0.078 2.082,0.078 6.309,0 12.215,-2.113 16.989,-5.707 6.324,-4.758 10.648,-12.109 11.269,-20.57 l 27.215,-372.332 c 1.141,-15.551 -10.652,-29.203 -26.203,-30.332 l -7.641,-0.559"
         id="path268"
         inkscape:connector-curvature="0" /></clipPath><linearGradient
       x1="0"
       y1="0"
       x2="1"
       y2="0"
       gradientUnits="userSpaceOnUse"
       gradientTransform="matrix(160.135,-439.967,-439.967,-160.135,122.026,863.993)"
       spreadMethod="pad"
       id="linearGradient270"><stop
         style="stop-opacity:1;stop-color:#f3652c"
         offset="0"
         id="stop272" /><stop
         style="stop-opacity:1;stop-color:#fcd51f"
         offset="1"
         id="stop274" /></linearGradient><clipPath
       clipPathUnits="userSpaceOnUse"
       id="clipPath288"><path
         d="m 265.973,433.109 -31.356,428.871 39.895,2.915 31.355,-428.864 -39.894,-2.922"
         id="path290"
         inkscape:connector-curvature="0" /></clipPath><linearGradient
       x1="0"
       y1="0"
       x2="1"
       y2="0"
       gradientUnits="userSpaceOnUse"
       gradientTransform="matrix(160.135,-439.967,-439.967,-160.135,122.026,863.993)"
       spreadMethod="pad"
       id="linearGradient292"><stop
         style="stop-opacity:1;stop-color:#fcd4ba"
         offset="0"
         id="stop294" /><stop
         style="stop-opacity:1;stop-color:#fef3c3"
         offset="1"
         id="stop296" /></linearGradient></defs><sodipodi:namedview
     pagecolor="#ffffff"
     bordercolor="#666666"
     borderopacity="1"
     objecttolerance="10"
     gridtolerance="10"
     guidetolerance="10"
     inkscape:pageopacity="0"
     inkscape:pageshadow="2"
     inkscape:window-width="1920"
     inkscape:window-height="1125"
     id="namedview4"
     showgrid="false"
     inkscape:zoom="0.41404803"
     inkscape:cx="138.93024"
     inkscape:cy="99.516083"
     inkscape:window-x="0"
     inkscape:window-y="0"
     inkscape:window-maximized="1"
     inkscape:current-layer="svg2"
     fit-margin-top="5"
     fit-margin-left="5"
     fit-margin-bottom="5"
     fit-margin-right="5" /><g
     id="g12"
     transform="matrix(0.52901047,0,0,-0.52901047,5.0020664,805.00137)"><path
       d="m 740.961,429.711 -32.211,-49.129 -32.219,49.129 c -1.816,2.769 -5.539,3.539 -8.308,1.73 -2.77,-1.82 -3.543,-5.543 -1.727,-8.312 l 37.238,-56.777 c 1.11,-1.692 2.989,-2.711 5.016,-2.711 2.027,0 3.906,1.019 5.02,2.711 l 37.222,56.777 c 1.821,2.769 1.047,6.492 -1.726,8.312 -2.77,1.809 -6.489,1.039 -8.305,-1.73"
       style="fill:#231f20;fill-opacity:1;fill-rule:nonzero;stroke:none"
       id="path14"
       inkscape:connector-curvature="0" /><path
       d="m 365.195,450.559 c 70.852,35.972 256.137,69.757 256.137,69.757 l 206.813,-15.027 c 0,0 144.687,-41.578 204.515,-82.32 35,-23.828 58.72,-34.16 67.71,-137.5 7.03,-80.617 18.8,-274.3284 18.8,-274.3284 l -685.307,0 -16.347,224.6994 c 0,0 -200.551,-39.231 -236.52,-42.512 C 145.027,190.059 62.1875,180.262 33.8516,216.219 5.51563,252.191 -3.20703,303.43 8.78516,329.582 20.7773,355.738 64.375,466.91 64.375,466.91 l 300.82,-16.351"
       style="fill:#ffffff;fill-opacity:1;fill-rule:nonzero;stroke:none"
       id="path16"
       inkscape:connector-curvature="0" /><path
       d="m 676.875,96.0508 c -89.824,4.1872 -176.586,15.7692 -249.223,36.0002 -0.328,-1.93 6.211,-120.9104 6.211,-120.9104 l 685.307,0 c 0,0 -8.06,131.8394 -14.84,208.0704 -93.7,-72.5 -248.646,-131.5001 -427.455,-123.1602"
       style="fill:#d3d1ed;fill-opacity:1;fill-rule:nonzero;stroke:none"
       id="path18"
       inkscape:connector-curvature="0" /><path
       d="m 765.41,574.645 c 0,0 -0.586,-38.43 12.051,-54.375 l -66.633,-78.25 -70.801,78.25 c 12.629,15.945 12.043,54.375 12.043,54.375 l 113.34,0"
       style="fill:#fcd0b4;fill-opacity:1;fill-rule:nonzero;stroke:none"
       id="path20"
       inkscape:connector-curvature="0" /><path
       d="m 655.488,572.184 104.395,0 6.836,-31.86 c 0,0 -55.977,-44.875 -131.321,-28.336 l 20.09,60.196"
       style="fill:#e59686;fill-opacity:1;fill-rule:nonzero;stroke:none"
       id="path22"
       inkscape:connector-curvature="0" /><path
       d="m 371.934,1002.66 c 0,0 -68.196,265.31 68.476,362.81 0,0 26.16,45.92 122.5,100.42 123.75,70 295,41.25 321.25,-43.75 0,0 76.16,-11.88 124.59,-81.25 46.25,-66.25 62.91,-148.75 40,-336.25 l -18.34,-30.827 -640,-6.68 -18.476,35.527"
       style="fill:#483127;fill-opacity:1;fill-rule:nonzero;stroke:none"
       id="path24"
       inkscape:connector-curvature="0" /><path
       d="m 454.016,1321.23 c 0,0 26.16,45.92 122.5,100.43 123.75,70 295,41.25 321.25,-43.75 0,0 76.16,-11.89 124.574,-81.25 10.78,-15.43 19.92,-31.76 27.35,-50.07 -8.36,38.02 -22.23,67.5 -40.94,94.3 -48.43,69.37 -124.59,81.25 -124.59,81.25 -26.25,85 -197.5,113.75 -321.25,43.75 -96.34,-54.5 -122.5,-100.42 -122.5,-100.42 -136.672,-97.5 -68.476,-362.81 -68.476,-362.81 l 7.265,-13.984 c -13.105,72.294 -33.633,255.194 74.817,332.554"
       style="fill:#a08477;fill-opacity:1;fill-rule:nonzero;stroke:none"
       id="path26"
       inkscape:connector-curvature="0" /><path
       d="m 654.629,9.96875 40.226,358.22225 -35.402,72.34 50.957,9.821 48.203,-9.821 -35.39,-72.34 40.215,-358.22225"
       style="fill:#aa54b0;fill-opacity:1;fill-rule:nonzero;stroke:none"
       id="path28"
       inkscape:connector-curvature="0" /><path
       d="M 660.59,9.30078 700.816,367.52 c 0.125,1.128 -0.074,2.281 -0.574,3.3 l -31.953,65.301 42.09,8.109 39.437,-8.031 -31.984,-65.379 c -0.5,-1.019 -0.699,-2.172 -0.57,-3.3 L 757.477,9.30078 C 757.844,6 760.813,3.62891 764.105,4 c 3.293,0.37109 5.665,3.33984 5.293,6.6289 l -40.019,356.4921 34.625,70.77 c 0.816,1.679 0.816,3.621 -0.008,5.289 -0.824,1.672 -2.359,2.859 -4.187,3.23 l -48.204,9.82 -2.332,0.008 -50.957,-9.816 c -1.828,-0.352 -3.398,-1.543 -4.23,-3.211 -0.832,-1.672 -0.84,-3.641 -0.023,-5.32 L 688.695,367.121 648.668,10.6289 C 648.297,7.33984 650.664,4.37109 653.961,4 c 3.293,-0.37109 6.262,2 6.633,5.30078"
       style="fill:#231f20;fill-opacity:1;fill-rule:nonzero;stroke:none"
       id="path30"
       inkscape:connector-curvature="0" /><path
       d="m 694.855,368.191 c 0,0 11.129,11.5 28.368,0"
       style="fill:#ed1c24;fill-opacity:1;fill-rule:nonzero;stroke:none"
       id="path32"
       inkscape:connector-curvature="0" /><path
       d="m 698.445,364.711 -1.468,1.418 1.429,-1.457 0.039,0.039 -1.468,1.418 1.429,-1.457 c 0.106,0.117 3.922,3.68 9.801,3.629 3.18,-0.012 7.18,-0.91 12.238,-4.27 2.297,-1.531 5.403,-0.91 6.938,1.379 1.531,2.301 0.914,5.399 -1.387,6.942 -6.43,4.308 -12.562,5.957 -17.789,5.949 -10.547,-0.071 -16.492,-6.199 -16.945,-6.641 -1.922,-1.98 -1.871,-5.14 0.113,-7.07 1.984,-1.918 5.152,-1.86 7.07,0.121"
       style="fill:#231f20;fill-opacity:1;fill-rule:nonzero;stroke:none"
       id="path34"
       inkscape:connector-curvature="0" /><path
       d="m 1884.11,400.211 c -45.83,15.828 -176.71,52.09 -219.66,65.18 l -156.66,3.418 c -43.36,-13.418 -181.53,-59.137 -218.63,-80.5 -38.38,-22.09 -51.66,-56.379 -68.81,-192.129 -10.98,-86.84 -10.8,-189.16828 -10.8,-189.16828 l 625.4,0 25.83,214.86728 c 0,0 129.99,-29.18 153.33,-30.84 23.34,-1.66 63.34,-5.82 86.67,10.84 23.33,16.66 34.17,33.332 36.67,55.832 2.5,22.5 -12.5,75 -12.5,75 l -49.17,126.668 -32.5,67.488 -88.33,-157.496 -70.84,30.84"
       style="fill:#f8a1ad;fill-opacity:1;fill-rule:nonzero;stroke:none"
       id="path36"
       inkscape:connector-curvature="0" /><path
       d="m 1548.53,95.5391 c -175.25,0 -330.94,76.3009 -330.94,76.3009 l -8.04,-164.82828 626.23,0 19,188.09728 C 1805.72,143.25 1667.48,95.5391 1548.53,95.5391"
       style="fill:#f57a9a;fill-opacity:1;fill-rule:nonzero;stroke:none"
       id="path38"
       inkscape:connector-curvature="0" /><path
       d="m 1684.1,364.891 -97.78,-343.6722 -98.49,352.2302 40.17,23.602 145,-7.082 11.1,-25.078"
       style="fill:#ffffff;fill-opacity:1;fill-rule:nonzero;stroke:none"
       id="path40"
       inkscape:connector-curvature="0" /><path
       d="m 1536.67,505.25 99.2,0 4.4,-44.871 12.89,-9.16 -6.21,-44.231 -61,-22.859 -60.97,31.422 -5.55,32.801 14.49,25.32 2.75,31.578"
       style="fill:#fcd0b4;fill-opacity:1;fill-rule:nonzero;stroke:none"
       id="path42"
       inkscape:connector-curvature="0" /><path
       d="m 1536.25,517.27 99.47,0 0.47,-35.5 c 0,0 -34.16,-49.301 -103.32,-28.129 l 3.38,63.629"
       style="fill:#e59686;fill-opacity:1;fill-rule:nonzero;stroke:none"
       id="path44"
       inkscape:connector-curvature="0" /><path
       d="m 1390.62,608.961 c -284.39,204.09 -149.63,578.229 -63.5,672.069 181.76,198.01 386.37,82.8 400,36.88 0,0 51.18,31.16 119.42,-36.88 68.24,-68.02 250.17,-412.257 -63.52,-672.069"
       style="fill:#7b413b;fill-opacity:1;fill-rule:nonzero;stroke:none"
       id="path46"
       inkscape:connector-curvature="0" /><path
       d="m 1354,1225.86 c 159.02,173.24 329.16,114.96 379.96,64.89 52.44,4.82 96.11,-19.8 133.05,-56.62 16.07,-16.03 38.45,-47.41 59.2,-89.39 -25.06,65.48 -58.09,114.75 -79.67,136.29 -68.24,68.04 -119.42,36.88 -119.42,36.88 -13.63,45.92 -218.24,161.13 -400,-36.88 -68.41,-74.55 -167.5,-325.987 -62.77,-528.538 -19.14,53.086 -13.98,137.914 -13.98,139.184 -15.36,136.924 57.81,284.244 103.63,334.184"
       style="fill:#d49c8d;fill-opacity:1;fill-rule:nonzero;stroke:none"
       id="path48"
       inkscape:connector-curvature="0" /><path
       d="m 1351.99,1254.4 c 0,0 80.82,-68.67 179.63,-72.85 0,0 36.05,-15.37 -36.04,-19.66 -72.11,-4.33 -148.14,6 -193.87,34.5 l 50.28,58.01"
       style="fill:#d49c8d;fill-opacity:1;fill-rule:nonzero;stroke:none"
       id="path50"
       inkscape:connector-curvature="0" /><path
       d="m 1696.35,449.629 64.56,-44.508 -58.23,-20.59 c -2.04,-0.722 -3.53,-2.48 -3.9,-4.609 -0.38,-2.133 0.41,-4.293 2.07,-5.672 l 60.52,-50.172 -160.06,-309.3163 c -1.53,-2.9414 -0.37,-6.56248 2.57,-8.08201 2.94,-1.53125 6.56,-0.3711 8.08,2.57031 l 162.29,313.609 c 1.3,2.512 0.68,5.582 -1.5,7.379 l -56.1,46.5 59.35,20.992 c 2.13,0.75 3.65,2.629 3.95,4.86 0.29,2.242 -0.69,4.449 -2.55,5.73 l -74.23,51.192 c -2.73,1.886 -6.47,1.199 -8.35,-1.532 -1.88,-2.73 -1.19,-6.46 1.53,-8.351"
       style="fill:#231f20;fill-opacity:1;fill-rule:nonzero;stroke:none"
       id="path52"
       inkscape:connector-curvature="0" /><path
       d="m 1469.5,459.512 -74.24,-51.192 c -1.86,-1.281 -2.84,-3.488 -2.54,-5.73 0.3,-2.231 1.82,-4.11 3.95,-4.86 l 59.32,-20.992 -56.09,-46.5 c -2.18,-1.797 -2.8,-4.867 -1.5,-7.379 L 1560.7,9.25 c 1.52,-2.94141 5.14,-4.10156 8.09,-2.57031 2.94,1.51953 4.09,5.14061 2.57,8.08201 l -160.08,309.3163 60.51,50.172 c 1.67,1.379 2.46,3.539 2.08,5.672 -0.38,2.129 -1.87,3.887 -3.91,4.609 l -58.21,20.59 64.56,44.508 c 2.73,1.891 3.42,5.621 1.53,8.351 -1.88,2.731 -5.61,3.418 -8.34,1.532"
       style="fill:#231f20;fill-opacity:1;fill-rule:nonzero;stroke:none"
       id="path54"
       inkscape:connector-curvature="0" /><path
       d="m 2041.2,526.867 c 0,0 17.09,-23.328 18.75,-31.246 1.66,-7.922 4.16,-52.5 -4.59,-73.75 -8.75,-21.25 -23.74,-44.16 -35.41,-50.832 -11.67,-6.668 -26.25,-9.18 -37.5,-7.09 -11.25,2.09 -32.92,14.59 -32.92,14.59 l -10,43.75 101.67,104.578"
       style="fill:#ffffff;fill-opacity:1;fill-rule:nonzero;stroke:none"
       id="path56"
       inkscape:connector-curvature="0" /><path
       d="m 1528.11,513.473 0.01,-0.926 c 0,-3.086 -0.1,-13.508 -1.22,-25.328 -1.07,-11.778 -3.35,-25.11 -6.98,-33.168 -1.56,-3.531 0.03,-7.672 3.56,-9.231 3.54,-1.57 7.67,0.02 9.24,3.559 4.78,10.883 6.9,24.992 8.12,37.531 1.18,12.488 1.27,23.27 1.28,26.637 l -0.01,1.078 c -0.04,3.867 -3.21,6.965 -7.07,6.926 -3.87,-0.043 -6.97,-3.211 -6.93,-7.078"
       style="fill:#231f20;fill-opacity:1;fill-rule:nonzero;stroke:none"
       id="path58"
       inkscape:connector-curvature="0" /><path
       d="m 1630.83,513.633 -0.01,-1.086 c 0,-3.367 0.1,-14.149 1.28,-26.637 1.22,-12.539 3.34,-26.648 8.12,-37.531 1.57,-3.539 5.7,-5.129 9.24,-3.559 3.53,1.571 5.12,5.7 3.55,9.231 -3.62,8.058 -5.9,21.39 -6.97,33.168 -1.12,11.82 -1.22,22.242 -1.22,25.328 l 0.01,0.922 c 0.04,3.863 -3.06,7.035 -6.92,7.082 -3.87,0.043 -7.04,-3.055 -7.08,-6.918"
       style="fill:#231f20;fill-opacity:1;fill-rule:nonzero;stroke:none"
       id="path60"
       inkscape:connector-curvature="0" /><path
       d="m 1642.98,460.832 c 0.01,-0.012 2.44,-0.543 6.93,-1.582 31.43,-7.199 163.42,-38.551 252.27,-74.699 l 0.14,-0.051 46.15,-17.609 c 3.61,-1.379 7.65,0.429 9.03,4.05 1.38,3.61 -0.43,7.649 -4.04,9.028 l -46.15,17.609 -2.49,-6.539 2.64,6.481 c -103.44,42.019 -261.26,76.921 -261.45,76.968 -3.77,0.84 -7.51,-1.539 -8.35,-5.316 -0.83,-3.774 1.55,-7.512 5.32,-8.34"
       style="fill:#231f20;fill-opacity:1;fill-rule:nonzero;stroke:none"
       id="path62"
       inkscape:connector-curvature="0" /><path
       d="m 1526.7,474.832 c -0.13,-0.023 -37.5,-7.113 -86.14,-20.684 -48.67,-13.578 -108.55,-33.539 -154.15,-59.769 -10.13,-5.82 -18.86,-12.68 -26.2,-21.848 -11.03,-13.793 -18.72,-32.242 -25.35,-59.691 -6.63,-27.481 -12.24,-64.192 -18.68,-115.192 -11.04,-87.347 -13.62,-190.34722 -13.63,-190.46831 -0.1,-3.85938 2.95,-7.070315 6.82,-7.1679712 3.86,-0.1015626 7.08,2.9492212 7.17,6.8203112 0,0.01953 0.16,6.37887 0.58,17.34767 1.24,32.9101 4.76,106.9683 12.94,171.7113 8.54,67.738 15.68,109.879 25.09,136.98 4.7,13.559 9.89,23.289 15.99,30.899 6.11,7.609 13.18,13.25 22.25,18.48 43.69,25.18 102.86,45.039 150.93,58.422 24.04,6.699 45.32,11.808 60.57,15.238 7.63,1.711 13.75,3.012 17.95,3.871 4.21,0.867 6.46,1.289 6.47,1.301 3.8,0.719 6.29,4.379 5.57,8.18 -0.72,3.797 -4.38,6.289 -8.18,5.57"
       style="fill:#231f20;fill-opacity:1;fill-rule:nonzero;stroke:none"
       id="path64"
       inkscape:connector-curvature="0" /><path
       d="m 1293.29,256.012 16.26,-22.203 22.5,-227.48869 c 0.38,-3.85156 3.81,-6.660154 7.66,-6.2812475 3.84,0.3828125 6.66,3.8124975 6.27,7.6601575 L 1323.29,237.09 c -0.13,1.25 -0.57,2.43 -1.32,3.449 l -17.38,23.742 c -2.29,3.117 -6.67,3.789 -9.79,1.508 -3.11,-2.289 -3.79,-6.668 -1.51,-9.777"
       style="fill:#231f20;fill-opacity:1;fill-rule:nonzero;stroke:none"
       id="path66"
       inkscape:connector-curvature="0" /><path
       d="m 1872.56,264.52 -19.01,-23.739 c -0.83,-1.043 -1.36,-2.34 -1.49,-3.66 L 1828.48,7.71875 c -0.39,-3.83984 2.4,-7.277344 6.25,-7.6796875 3.84,-0.3906255 7.28,2.4023475 7.68,6.2499975 l 23.36,227.35194 17.72,22.129 c 2.41,3.011 1.92,7.421 -1.09,9.839 -3.02,2.411 -7.43,1.922 -9.84,-1.089"
       style="fill:#231f20;fill-opacity:1;fill-rule:nonzero;stroke:none"
       id="path68"
       inkscape:connector-curvature="0" /><path
       d="m 1394.7,614.645 c -63.68,45.718 -105.8,99.839 -132.15,157.433 -26.34,57.594 -36.86,118.727 -36.86,178.277 -0.01,71.455 15.18,140.595 36.17,198.075 20.95,57.46 47.88,103.37 70.42,127.87 76.67,83.42 156.42,109.77 223.96,109.83 45.14,0.01 84.89,-11.93 114.1,-26.98 14.6,-7.51 26.55,-15.8 35.14,-23.59 8.61,-7.72 13.7,-15.18 14.93,-19.64 0.62,-2.08 2.17,-3.76 4.2,-4.54 2.03,-0.78 4.3,-0.58 6.15,0.55 l -0.2,0.35 0.2,-0.35 0,0 -0.2,0.35 0.2,-0.35 c 0.63,0.37 10.9,6.11 27.72,6.1 19.57,-0.06 48.47,-7.51 83.12,-41.96 18.45,-18.33 46.97,-59.7 70.41,-114.82 23.52,-55.18 42.2,-124.26 42.2,-198.773 -0.11,-112.567 -42.22,-237.485 -175.65,-348.125 -2.98,-2.469 -3.39,-6.879 -0.93,-9.86 2.47,-2.976 6.88,-3.39 9.86,-0.926 136.5,112.93 180.82,242.836 180.72,358.911 -0.01,76.863 -19.22,147.683 -43.32,204.253 -24.17,56.62 -52.99,98.84 -73.41,119.26 -36.59,36.57 -69.64,46.1 -93,46.04 -21.39,-0.01 -34.27,-7.7 -35,-8.14 l 3.64,-5.98 6.71,2 c -2.67,8.68 -9.29,17.18 -18.95,26.03 -14.53,13.15 -36.27,26.58 -63.38,36.86 -27.09,10.27 -59.54,17.33 -95.26,17.33 -71.24,0.07 -155.4,-28.34 -234.27,-114.37 -24.45,-26.69 -51.73,-73.67 -73.26,-132.53 -21.47,-58.82 -37.02,-129.43 -37.02,-202.875 0,-61.183 10.81,-124.367 38.12,-184.097 27.3,-59.731 71.15,-115.938 136.73,-162.985 3.14,-2.253 7.51,-1.535 9.77,1.606 2.25,3.141 1.53,7.512 -1.61,9.766"
       style="fill:#231f20;fill-opacity:1;fill-rule:nonzero;stroke:none"
       id="path70"
       inkscape:connector-curvature="0" /><path
       d="m 1869.78,866.82 c 7.97,7.93 23.28,29.895 54.51,25.008 31.23,-4.89 48.38,-54.305 26.96,-109.84 -21.43,-55.547 -68.58,-84.828 -104.75,-84.828"
       style="fill:#fcd0b4;fill-opacity:1;fill-rule:nonzero;stroke:none"
       id="path72"
       inkscape:connector-curvature="0" /><path
       d="m 1874.72,861.859 c 4.09,4.125 8.73,9.969 15.31,14.903 6.57,4.89 14.55,8.742 25.51,8.769 2.39,0 4.95,-0.191 7.67,-0.617 8.38,-1.328 15.74,-6.711 21.42,-16.156 5.63,-9.403 9.16,-22.727 9.15,-38.348 0,-13.89 -2.76,-29.57 -9.07,-45.902 -10.23,-26.543 -26.57,-46.684 -44.51,-60.168 -17.93,-13.496 -37.5,-20.207 -53.7,-20.18 -3.87,0 -7,-3.133 -7,-7 0,-3.863 3.13,-7 7,-7 19.97,0.031 42.06,7.957 62.11,22.988 20.02,15.043 37.98,37.317 49.17,66.321 6.88,17.855 10,35.203 10,50.941 -0.01,17.695 -3.91,33.387 -11.13,45.52 -7.15,12.086 -18.04,20.761 -31.27,22.816 -3.42,0.535 -6.7,0.785 -9.84,0.785 -14.46,0.028 -25.76,-5.402 -33.92,-11.578 -8.15,-6.133 -13.69,-13.148 -16.78,-16.172 -2.74,-2.726 -2.75,-7.16 -0.02,-9.898 2.73,-2.742 7.16,-2.75 9.9,-0.024"
       style="fill:#231f20;fill-opacity:1;fill-rule:nonzero;stroke:none"
       id="path74"
       inkscape:connector-curvature="0" /><path
       d="m 1306.36,867.23 c -7.97,7.93 -23.28,29.903 -54.51,25.032 -31.23,-4.895 -48.38,-54.317 -26.95,-109.856 21.42,-55.539 68.59,-84.812 104.72,-84.812"
       style="fill:#fcd0b4;fill-opacity:1;fill-rule:nonzero;stroke:none"
       id="path76"
       inkscape:connector-curvature="0" /><path
       d="m 1311.3,872.191 c -3.09,3.024 -8.63,10.043 -16.78,16.18 -8.16,6.18 -19.47,11.617 -33.93,11.586 -3.14,0 -6.41,-0.25 -9.82,-0.781 -13.24,-2.059 -24.13,-10.731 -31.28,-22.821 -7.22,-12.132 -11.12,-27.828 -11.13,-45.523 0,-15.742 3.12,-33.09 10.01,-50.945 11.18,-29 29.14,-51.27 49.17,-66.313 20.04,-15.023 42.13,-22.953 62.08,-22.98 3.87,0 7,3.133 7,7 0,3.863 -3.13,7 -7,7 -16.18,-0.031 -35.74,6.679 -53.67,20.176 -17.95,13.48 -34.28,33.621 -44.52,60.156 -6.3,16.332 -9.07,32.015 -9.07,45.906 -0.01,15.621 3.53,28.949 9.15,38.356 5.68,9.445 13.04,14.828 21.42,16.156 2.72,0.426 5.26,0.613 7.66,0.613 10.96,-0.027 18.95,-3.879 25.52,-8.777 6.58,-4.938 11.22,-10.782 15.31,-14.91 2.75,-2.727 7.18,-2.715 9.9,0.023 2.73,2.742 2.72,7.172 -0.02,9.898"
       style="fill:#231f20;fill-opacity:1;fill-rule:nonzero;stroke:none"
       id="path78"
       inkscape:connector-curvature="0" /><path
       d="m 1913.24,786.781 c -10.24,-22.07 -29.63,-35.351 -43.32,-29.636 -13.66,5.703 -16.47,28.23 -6.23,50.339 10.23,22.082 29.61,35.364 43.28,29.621 13.69,-5.695 16.48,-28.242 6.27,-50.324"
       style="fill:#e59686;fill-opacity:1;fill-rule:nonzero;stroke:none"
       id="path80"
       inkscape:connector-curvature="0" /><path
       d="m 1262.96,786.781 c 10.22,-22.07 29.59,-35.351 43.29,-29.636 13.67,5.703 16.48,28.23 6.23,50.339 -10.22,22.082 -29.61,35.364 -43.29,29.621 -13.67,-5.695 -16.46,-28.242 -6.23,-50.324"
       style="fill:#e59686;fill-opacity:1;fill-rule:nonzero;stroke:none"
       id="path82"
       inkscape:connector-curvature="0" /><path
       d="m 1873.14,803.777 0.24,0.442 c 1.26,2.371 7.67,13.844 16.63,24.347 4.47,5.254 9.57,10.243 14.74,13.739 5.19,3.527 10.28,5.449 14.91,5.429 l 1.79,-0.093 c 3.84,-0.403 7.29,2.382 7.69,6.226 0.41,3.848 -2.38,7.293 -6.22,7.699 -1.1,0.114 -2.19,0.168 -3.26,0.168 -9.03,-0.023 -17.12,-3.785 -24.09,-8.765 -10.48,-7.531 -18.96,-18.117 -25.07,-26.864 -6.08,-8.75 -9.69,-15.691 -9.78,-15.871 -1.79,-3.429 -0.45,-7.656 2.98,-9.437 3.43,-1.785 7.66,-0.449 9.44,2.98"
       style="fill:#231f20;fill-opacity:1;fill-rule:nonzero;stroke:none"
       id="path84"
       inkscape:connector-curvature="0" /><path
       d="m 1315.03,809.965 c -0.13,0.242 -6.48,12.484 -16.68,25.051 -5.11,6.285 -11.18,12.672 -18.18,17.687 -6.98,4.985 -15.06,8.746 -24.09,8.77 -1.08,0 -2.17,-0.055 -3.27,-0.172 -3.84,-0.406 -6.63,-3.852 -6.22,-7.696 0.4,-3.843 3.85,-6.632 7.7,-6.226 l 1.79,0.094 c 4.92,0.023 10.41,-2.18 15.94,-6.153 8.29,-5.894 16.17,-15.445 21.73,-23.48 2.79,-4.016 5.03,-7.645 6.56,-10.246 0.77,-1.305 1.35,-2.348 1.74,-3.055 l 0.44,-0.801 0.12,-0.234 c 1.79,-3.43 6.01,-4.766 9.44,-2.981 3.43,1.782 4.77,6.008 2.98,9.442"
       style="fill:#231f20;fill-opacity:1;fill-rule:nonzero;stroke:none"
       id="path86"
       inkscape:connector-curvature="0" /><path
       d="m 1660.73,314.621 -74.4,-267.2812 -80.14,288.0822 c -1.03,3.726 -4.89,5.906 -8.62,4.867 -3.72,-1.027 -5.9,-4.891 -4.87,-8.617 l 86.88,-312.3204 c 0.84,-3.043 3.59,-5.1211 6.74,-5.1328 3.15,0 5.9,2.0898 6.75,5.1328 l 81.15,291.5074 c 1.04,3.731 -1.14,7.59 -4.87,8.621 -3.72,1.04 -7.58,-1.14 -8.62,-4.859"
       style="fill:#231f20;fill-opacity:1;fill-rule:nonzero;stroke:none"
       id="path88"
       inkscape:connector-curvature="0" /><path
       d="m 1302.69,939.359 c -14.75,-98.906 15.27,-250.285 70.02,-325.285 58.18,-79.668 167.01,-117.355 213.96,-117.355 46.94,0 155.77,37.687 213.95,117.355 54.77,75 84.79,226.379 70.04,325.285 -14.77,98.901 -158.48,236.371 -176.91,250.601 0,0 -154.36,-39.34 -390.73,-250.601"
       style="fill:#fcd0b4;fill-opacity:1;fill-rule:nonzero;stroke:none"
       id="path90"
       inkscape:connector-curvature="0" /><path
       d="m 1295.77,940.391 c -2.59,-17.348 -3.82,-36.157 -3.82,-55.821 0.01,-47.566 7.18,-100.152 20.1,-148.882 12.95,-48.731 31.56,-93.571 55.01,-125.739 30.03,-41.09 72.7,-70.969 113.81,-90.734 41.21,-19.735 80.61,-29.426 105.8,-29.496 25.19,0.07 64.58,9.761 105.79,29.496 41.11,19.765 83.78,49.644 113.81,90.734 23.46,32.168 42.08,77.008 55.02,125.739 12.93,48.73 20.1,101.32 20.11,148.886 0,19.66 -1.23,38.469 -3.82,55.817 -3.92,26.125 -16.07,53.894 -32.16,81.389 -24.16,41.2 -57.37,81.73 -86.32,113.43 -14.48,15.85 -27.88,29.47 -38.57,39.84 -10.74,10.39 -18.56,17.39 -22.51,20.45 -1.7,1.31 -3.92,1.77 -6,1.24 -1.04,-0.26 -156.49,-40.17 -393.66,-252.162 -2.88,-2.574 -3.13,-7 -0.56,-9.883 2.58,-2.882 7,-3.132 9.89,-0.554 117.78,105.269 214.99,167.589 282.62,203.559 33.81,17.99 60.23,29.39 78.14,36.28 8.95,3.44 15.77,5.75 20.32,7.2 2.28,0.73 3.98,1.23 5.11,1.55 l 1.24,0.35 0.35,0.09 -1.72,6.79 -4.28,-5.55 c 1.94,-1.49 6.18,-5.16 11.8,-10.38 19.77,-18.35 57.53,-56.5 91.73,-100.56 34.25,-43.99 64.76,-94.251 70.74,-135.146 2.46,-16.523 3.66,-34.676 3.66,-53.75 0,-46.164 -7.02,-97.746 -19.64,-145.297 -12.59,-47.543 -30.87,-91.086 -52.79,-121.074 -28.15,-38.578 -68.99,-67.375 -108.57,-86.367 -39.49,-19.027 -77.97,-28.176 -99.73,-28.117 -21.76,-0.059 -60.25,9.09 -99.74,28.117 -39.58,18.992 -80.42,47.789 -108.57,86.367 -21.92,29.985 -40.19,73.527 -52.78,121.074 -12.61,47.547 -19.63,99.133 -19.63,145.293 0,19.078 1.2,37.227 3.66,53.758 0.57,3.824 -2.06,7.387 -5.89,7.953 -3.82,0.571 -7.38,-2.066 -7.95,-5.89"
       style="fill:#231f20;fill-opacity:1;fill-rule:nonzero;stroke:none"
       id="path92"
       inkscape:connector-curvature="0" /><path
       d="m 1593.5,779.074 0,14.719 c 0,3.867 -3.14,7 -7,7 -3.87,0 -7,-3.133 -7,-7 l 0,-14.719 c 0,-3.863 3.13,-7 7,-7 3.86,0 7,3.137 7,7"
       style="fill:#231f20;fill-opacity:1;fill-rule:nonzero;stroke:none"
       id="path94"
       inkscape:connector-curvature="0" /><path
       d="m 1666.93,1035.11 0.1,0.05 c 1.42,0.68 16.47,7.3 35.44,7.28 17.35,-0.07 37.64,-5.2 55.68,-25.2 2.21,-2.46 6.01,-2.67 8.47,-0.45 2.47,2.22 2.67,6.01 0.46,8.48 -20.44,22.82 -44.88,29.23 -64.61,29.17 -23.16,-0.04 -40.27,-8.31 -40.74,-8.51 -2.99,-1.44 -4.24,-5.02 -2.81,-8.01 1.44,-2.99 5.03,-4.24 8.01,-2.81"
       style="fill:#231f20;fill-opacity:1;fill-rule:nonzero;stroke:none"
       id="path96"
       inkscape:connector-curvature="0" /><path
       d="m 1511.29,1045.93 c -0.47,0.2 -17.59,8.47 -40.75,8.51 -19.73,0.06 -44.18,-6.35 -64.6,-29.18 -2.21,-2.46 -2.01,-6.26 0.46,-8.47 2.46,-2.22 6.26,-2.01 8.47,0.46 18.03,19.99 38.32,25.12 55.67,25.19 10.12,0 19.12,-1.86 25.54,-3.73 3.21,-0.92 5.77,-1.85 7.5,-2.53 l 1.94,-0.81 0.46,-0.21 0.1,-0.05 c 2.99,-1.43 6.58,-0.18 8.01,2.81 1.44,2.99 0.18,6.57 -2.8,8.01"
       style="fill:#231f20;fill-opacity:1;fill-rule:nonzero;stroke:none"
       id="path98"
       inkscape:connector-curvature="0" /><path
       d="m 1444.93,811.977 c 0,-16.7 -28.06,-30.215 -62.67,-30.215 -34.59,0 -62.67,13.515 -62.67,30.215 0,16.652 28.08,30.144 62.67,30.144 34.61,0 62.67,-13.492 62.67,-30.144"
       style="fill:#f68489;fill-opacity:1;fill-rule:nonzero;stroke:none"
       id="path100"
       inkscape:connector-curvature="0" /><path
       d="m 1852.63,812.035 c 0,-16.699 -28.07,-30.215 -62.66,-30.215 -34.61,0 -62.68,13.516 -62.68,30.215 0,16.653 28.07,30.149 62.68,30.149 34.59,0 62.66,-13.496 62.66,-30.149"
       style="fill:#f68489;fill-opacity:1;fill-rule:nonzero;stroke:none"
       id="path102"
       inkscape:connector-curvature="0" /><path
       d="m 1585.95,384.129 c -37.13,53.133 -55.86,78.601 -53.73,99.242 0,0 -19.86,-6.391 -36.23,-30.191 -23.42,-34.051 4.57,-123.731 11.8,-149.61 0,0 33.53,53.692 78.16,80.559"
       style="fill:#ffffff;fill-opacity:1;fill-rule:nonzero;stroke:none"
       id="path104"
       inkscape:connector-curvature="0" /><path
       d="m 1585.95,384.129 5.74,4.019 c -17.63,25.211 -31.06,44.161 -39.89,58.954 -8.88,14.796 -12.81,25.269 -12.74,33.058 l 0.12,2.488 c 0.25,2.352 -0.71,4.672 -2.55,6.161 -1.84,1.492 -4.3,1.953 -6.55,1.23 -0.89,-0.289 -22.27,-7.359 -39.86,-32.898 -7.96,-11.719 -10.34,-27.153 -10.4,-43.801 0.02,-20.949 4.07,-44.141 8.72,-64.539 4.65,-20.36 9.96,-37.981 12.51,-47.11 0.74,-2.671 3,-4.66 5.74,-5.05 2.74,-0.391 5.47,0.871 6.94,3.218 l 0.34,0.539 c 3.51,5.622 35.56,53.832 75.49,77.743 1.67,1 2.83,2.629 3.24,4.539 0.4,1.91 0.01,3.871 -1.11,5.468 l -5.74,-4.019 -3.61,6 c -23.39,-14.109 -43.31,-34.75 -57.59,-51.879 -14.25,-17.129 -22.78,-30.789 -22.9,-30.969 l 5.94,-3.711 6.74,1.879 c -2.62,9.383 -7.8,26.602 -12.34,46.473 -4.54,19.828 -8.38,42.269 -8.37,61.418 -0.05,15.25 2.57,28.219 7.94,35.871 7.6,11.051 15.93,17.969 22.31,22.129 3.18,2.082 5.87,3.461 7.71,4.301 0.92,0.418 1.62,0.711 2.07,0.879 l 0.47,0.171 0.08,0.028 -0.79,2.351 0.76,-2.359 0.03,0.008 -0.79,2.351 0.76,-2.359 -2.15,6.66 -6.96,0.719 c -0.14,-1.301 -0.2,-2.61 -0.2,-3.93 0.07,-12.32 5.47,-24.66 14.72,-40.238 9.32,-15.602 22.83,-34.602 40.43,-59.793 l 5.74,4 -3.61,6 3.61,-6"
       style="fill:#231f20;fill-opacity:1;fill-rule:nonzero;stroke:none"
       id="path106"
       inkscape:connector-curvature="0" /><path
       d="m 1586.69,384.129 c 37.15,53.133 55.88,78.601 53.73,99.242 0,0 19.87,-6.391 36.24,-30.191 23.41,-34.051 -4.56,-123.731 -11.8,-149.61 0,0 -33.54,53.692 -78.17,80.559"
       style="fill:#ffffff;fill-opacity:1;fill-rule:nonzero;stroke:none"
       id="path108"
       inkscape:connector-curvature="0" /><path
       d="m 1586.69,384.129 5.74,-4.008 c 17.6,25.18 31.12,44.188 40.43,59.777 9.26,15.582 14.66,27.922 14.73,40.243 0,1.328 -0.07,2.648 -0.2,3.961 l -6.97,-0.731 -2.14,-6.66 0.76,2.359 -0.79,-2.351 0.03,-0.008 0.76,2.359 -0.79,-2.351 c 0.29,-0.098 17.96,-6.137 32.64,-27.508 5.37,-7.66 7.99,-20.629 7.93,-35.891 0.02,-19.14 -3.82,-41.582 -8.36,-61.41 -4.54,-19.859 -9.72,-37.078 -12.34,-46.449 l 6.74,-1.891 5.94,3.711 c -0.12,0.18 -8.66,13.84 -22.91,30.969 -14.27,17.129 -34.19,37.77 -57.58,51.879 l -3.62,-6 5.74,-4.008 -5.74,4.008 -3.61,-5.988 c 21.24,-12.762 40.4,-32.411 54.05,-48.84 6.84,-8.219 12.32,-15.621 16.07,-20.949 1.87,-2.672 3.32,-4.813 4.29,-6.282 l 1.09,-1.672 0.34,-0.539 c 1.47,-2.347 4.2,-3.609 6.93,-3.218 2.74,0.39 5,2.379 5.75,5.039 2.56,9.14 7.86,26.75 12.51,47.109 4.65,20.402 8.7,43.582 8.72,64.531 -0.06,16.66 -2.44,32.09 -10.41,43.828 -17.59,25.532 -38.96,32.602 -39.85,32.891 -2.25,0.723 -4.72,0.262 -6.55,-1.23 -1.84,-1.489 -2.8,-3.809 -2.56,-6.161 l 0.13,-2.507 c 0.07,-7.801 -3.86,-18.262 -12.75,-33.059 -8.82,-14.793 -22.25,-33.73 -39.88,-58.934 -1.12,-1.597 -1.52,-3.558 -1.11,-5.468 0.4,-1.91 1.56,-3.539 3.23,-4.539 l 3.61,5.988"
       style="fill:#231f20;fill-opacity:1;fill-rule:nonzero;stroke:none"
       id="path110"
       inkscape:connector-curvature="0" /><path
       d="m 645.07,574.535 0.004,-0.687 c 0.004,-2.575 -0.125,-12.059 -1.617,-22.407 -1.402,-10.328 -4.582,-21.566 -8.914,-26.828 -2.402,-3.031 -1.891,-7.433 1.141,-9.832 3.031,-2.402 7.433,-1.89 9.832,1.141 7.222,9.332 10.062,22.101 11.797,33.519 1.64,11.403 1.757,21.411 1.761,24.407 l -0.004,0.902 c -0.058,3.863 -3.242,6.949 -7.105,6.891 -3.867,-0.059 -6.953,-3.239 -6.895,-7.106"
       style="fill:#231f20;fill-opacity:1;fill-rule:nonzero;stroke:none"
       id="path112"
       inkscape:connector-curvature="0" /><path
       d="m 758.41,574.75 -0.004,-0.898 c 0.004,-2.997 0.121,-13.004 1.762,-24.407 1.734,-11.422 4.582,-24.195 11.809,-33.523 2.398,-3.031 6.8,-3.543 9.832,-1.141 3.031,2.403 3.539,6.805 1.136,9.832 -4.336,5.266 -7.519,16.5 -8.922,26.828 -1.496,10.352 -1.621,19.836 -1.617,22.411 l 0.004,0.683 c 0.059,3.863 -3.027,7.047 -6.89,7.106 -3.868,0.062 -7.047,-3.024 -7.11,-6.891"
       style="fill:#231f20;fill-opacity:1;fill-rule:nonzero;stroke:none"
       id="path114"
       inkscape:connector-curvature="0" /><path
       d="m 708.086,446.391 c -54.356,51.558 -69.356,93.125 -62.031,113.957 0,0 -19.375,-11.25 -33.125,-42.707 -28.594,-65.411 -3.496,-122.942 -0.457,-140.801 0,0 64.207,70.89 95.613,69.551"
       style="fill:#ffffff;fill-opacity:1;fill-rule:nonzero;stroke:none"
       id="path116"
       inkscape:connector-curvature="0" /><path
       d="m 708.086,446.391 4.816,5.078 c -22.589,21.422 -38.113,40.972 -47.886,57.66 -9.797,16.672 -13.731,30.5 -13.696,40.086 0,3.515 0.508,6.449 1.336,8.808 0.977,2.774 0.125,5.84 -2.136,7.715 -2.266,1.875 -5.442,2.137 -7.981,0.66 -0.887,-0.5 -21.535,-12.8 -36.023,-45.953 -10.598,-24.226 -14.133,-47.504 -14.129,-68.125 0,-18.711 2.89,-35.25 5.992,-48.5 3.098,-13.172 6.43,-23.449 7.191,-28.148 0.45,-2.641 2.368,-4.801 4.942,-5.551 2.57,-0.75 5.347,0.039 7.148,2.02 0,0 0.93,1.031 2.684,2.898 6.129,6.539 22.051,23.031 39.636,37.699 8.786,7.332 17.997,14.203 26.418,19.094 8.387,4.938 16.094,7.668 20.797,7.578 l 0.586,-0.012 c 2.914,-0.128 5.61,1.571 6.75,4.262 1.137,2.68 0.489,5.801 -1.629,7.809 l -4.816,-5.078 0.305,6.988 -1.196,0.031 c -10.461,-0.129 -20.98,-5.172 -31.906,-11.949 -16.281,-10.262 -33.105,-25.152 -46.055,-37.563 -12.921,-12.386 -21.875,-22.277 -21.953,-22.359 l 5.192,-4.699 6.898,1.172 c -1.195,6.808 -4.402,16.289 -7.359,28.988 -2.953,12.621 -5.625,28.059 -5.625,45.32 0.008,19.039 3.23,40.258 12.957,62.516 6.515,14.898 14.281,24.859 20.32,31.07 3.02,3.106 5.609,5.266 7.387,6.621 l 2.012,1.442 0.46,0.293 0.079,0.047 -1.262,2.105 1.23,-2.121 0.032,0.016 -1.262,2.105 1.23,-2.121 -3.515,6.055 -6.606,2.32 c -1.437,-4.094 -2.129,-8.605 -2.129,-13.453 0.035,-13.231 5.016,-29.024 15.618,-47.164 10.628,-18.129 26.984,-38.59 50.332,-60.742 l 4.816,5.082 0.305,6.988 -0.305,-6.988"
       style="fill:#231f20;fill-opacity:1;fill-rule:nonzero;stroke:none"
       id="path118"
       inkscape:connector-curvature="0" /><path
       d="m 708.203,446.391 c 56.602,51.25 69.356,93.125 62.031,113.957 0,0 19.375,-11.25 33.125,-42.707 28.594,-65.411 3.496,-122.942 0.457,-140.801 0,0 -66.511,70.89 -95.613,69.551"
       style="fill:#ffffff;fill-opacity:1;fill-rule:nonzero;stroke:none"
       id="path120"
       inkscape:connector-curvature="0" /><path
       d="m 708.203,446.391 4.699,-5.192 c 24.024,21.762 40.469,42 51,60.031 10.516,18.047 15.188,33.883 15.211,47.051 0,5.242 -0.758,10.067 -2.273,14.387 l -6.606,-2.32 -3.515,-6.055 1.23,2.121 -1.261,-2.105 0.031,-0.016 1.23,2.121 -1.261,-2.105 c 0.277,-0.176 17.652,-10.641 30.257,-39.473 9.727,-22.258 12.95,-43.477 12.957,-62.516 0,-17.261 -2.672,-32.699 -5.625,-45.32 -2.957,-12.699 -6.164,-22.18 -7.359,-28.988 l 6.898,-1.172 5.106,4.789 c -0.098,0.101 -16.52,17.609 -36.836,35.281 -10.176,8.84 -21.301,17.711 -32.043,24.539 -5.379,3.41 -10.66,6.321 -15.797,8.442 -5.144,2.109 -10.148,3.5 -15.219,3.519 l -1.152,-0.031 0.328,-6.988 4.699,-5.192 -4.699,5.192 0.328,-6.993 0.496,0.012 c 2.313,0.02 5.805,-0.762 9.879,-2.461 14.449,-5.867 34.985,-22.23 51.192,-37 8.148,-7.39 15.324,-14.379 20.453,-19.519 2.562,-2.571 4.613,-4.68 6.019,-6.129 1.403,-1.461 2.141,-2.25 2.145,-2.25 1.816,-1.942 4.578,-2.68 7.121,-1.91 2.547,0.757 4.437,2.91 4.883,5.531 0.761,4.699 4.094,14.976 7.191,28.148 3.102,13.25 5.992,29.789 5.992,48.5 0.004,20.621 -3.531,43.899 -14.129,68.125 -14.488,33.153 -35.136,45.453 -36.023,45.953 -2.543,1.477 -5.715,1.215 -7.98,-0.66 -2.262,-1.875 -3.114,-4.941 -2.137,-7.715 0.914,-2.597 1.48,-5.851 1.48,-9.742 0.024,-9.765 -3.66,-23.504 -13.3,-39.992 -9.622,-16.488 -25.129,-35.73 -48.309,-56.711 -2.191,-1.988 -2.902,-5.117 -1.774,-7.859 1.129,-2.731 3.844,-4.457 6.801,-4.321 l -0.328,6.993"
       style="fill:#231f20;fill-opacity:1;fill-rule:nonzero;stroke:none"
       id="path122"
       inkscape:connector-curvature="0" /><path
       d="m 804.676,506.129 c 0.008,0 2.558,-0.75 7.199,-2.168 16.23,-4.961 57.73,-17.941 101.598,-34.09 43.812,-16.09 90.207,-35.582 115.247,-52.68 8.86,-6.031 16.75,-11.07 23.6,-16.652 10.25,-8.41 18.43,-17.84 25.41,-35.051 6.94,-17.187 12.34,-42.25 15.66,-80.617 3.51,-40.191 8.21,-108.781 12.03,-167.262 1.91,-29.2379 3.6,-55.9684 4.82,-75.3785 1.21,-19.4219 1.95,-31.4922 1.95,-31.5196 0.23,-3.85934 3.55,-6.78902 7.41,-6.56246 3.86,0.23047 6.8,3.55078 6.56,7.41016 0,0.043 -11.77,193.6914 -18.82,274.5234 -4.55,52.129 -12.77,81.609 -25.12,101.637 -6.16,9.98 -13.35,17.402 -21.06,23.679 -7.73,6.282 -15.93,11.481 -24.56,17.364 -15.65,10.629 -37.51,21.429 -61.725,31.867 -72.555,31.242 -166.098,58.883 -166.23,58.93 -3.707,1.097 -7.602,-1.02 -8.696,-4.727 -1.097,-3.711 1.02,-7.602 4.727,-8.703"
       style="fill:#231f20;fill-opacity:1;fill-rule:nonzero;stroke:none"
       id="path124"
       inkscape:connector-curvature="0" /><path
       d="m 407.328,246.211 c 0.043,-0.129 0.285,-1.75 0.535,-3.93 1.981,-16.851 6.938,-74.961 11.367,-128.609 2.219,-26.84 4.313,-52.6212 5.852,-71.6837 1.535,-19.0586 2.52,-31.3789 2.52,-31.4063 0.308,-3.85153 3.679,-6.73044 7.535,-6.42184 3.851,0.30859 6.726,3.67968 6.422,7.53124 0,0.0078 -4.477,56.2305 -9.27,113.9176 -2.394,28.852 -4.867,58.063 -6.898,80.813 -1.016,11.379 -1.922,21.129 -2.657,28.437 -0.367,3.661 -0.691,6.7 -0.964,9.063 -0.29,2.398 -0.477,3.898 -0.75,5.226 -0.809,3.782 -4.532,6.18 -8.313,5.372 -3.777,-0.809 -6.187,-4.532 -5.379,-8.309"
       style="fill:#231f20;fill-opacity:1;fill-rule:nonzero;stroke:none"
       id="path126"
       inkscape:connector-curvature="0" /><path
       d="m 1001.49,298.609 c -0.29,-1.39 -0.48,-3.027 -0.81,-5.8 -2.321,-20.137 -8.485,-90.25 -14.102,-155.547 -5.605,-65.2503 -10.644,-125.5432 -10.644,-125.5432 -0.321,-3.84771 2.543,-7.23833 6.394,-7.55864 3.852,-0.32032 7.235,2.53906 7.559,6.39064 0.004,0.0508 1.429,17.1484 3.621,43.0508 3.277,38.8398 8.262,97.3864 12.652,147.3084 2.2,24.949 4.25,47.762 5.86,64.852 0.81,8.539 1.51,15.66 2.07,20.879 0.27,2.609 0.51,4.75 0.71,6.328 0.18,1.543 0.36,2.703 0.37,2.711 0.81,3.781 -1.59,7.5 -5.37,8.308 -3.78,0.813 -7.5,-1.597 -8.31,-5.379"
       style="fill:#231f20;fill-opacity:1;fill-rule:nonzero;stroke:none"
       id="path128"
       inkscape:connector-curvature="0" /><path
       d="m 1009.86,980.863 c 0,0 61.6,49.377 84.72,-28.054 26.59,-88.957 -62.49,-185.93 -102.908,-193.516"
       style="fill:#fcd0b4;fill-opacity:1;fill-rule:nonzero;stroke:none"
       id="path130"
       inkscape:connector-curvature="0" /><path
       d="m 1014.24,975.402 0.13,0.098 c 0.85,0.66 5.63,4.25 12.34,7.574 6.71,3.348 15.32,6.328 23.58,6.301 6.95,-0.043 13.55,-1.863 19.98,-7.332 6.41,-5.492 12.78,-15.082 17.61,-31.238 3.15,-10.543 4.57,-21.207 4.57,-31.871 0.06,-36.868 -17.3,-73.942 -39.19,-102.371 -10.92,-14.211 -22.93,-26.247 -34.15,-35 -11.18,-8.778 -21.766,-14.149 -28.731,-15.391 -3.801,-0.715 -6.301,-4.371 -5.59,-8.172 0.715,-3.801 4.371,-6.301 8.172,-5.59 10.689,2.074 22.409,8.547 34.759,18.113 18.42,14.391 37.9,36.012 52.98,61.774 15.06,25.75 25.73,55.691 25.75,86.637 0,11.91 -1.6,23.961 -5.16,35.879 -5.34,17.875 -12.84,30.066 -21.91,37.851 -9.03,7.806 -19.5,10.756 -29.09,10.716 -12.27,-0.04 -23.27,-4.384 -31.34,-8.548 -8.07,-4.187 -13.22,-8.312 -13.47,-8.508 -3.01,-2.418 -3.5,-6.82 -1.08,-9.84 2.42,-3.015 6.83,-3.5 9.84,-1.082"
       style="fill:#231f20;fill-opacity:1;fill-rule:nonzero;stroke:none"
       id="path132"
       inkscape:connector-curvature="0" /><path
       d="m 1050.41,866.703 c -12.67,-28.808 -36.66,-46.094 -53.601,-38.652 -16.946,7.441 -20.414,36.836 -7.739,65.644 12.67,28.789 36.67,46.094 53.61,38.633 16.94,-7.441 20.39,-36.836 7.73,-65.625"
       style="fill:#e59686;fill-opacity:1;fill-rule:nonzero;stroke:none"
       id="path134"
       inkscape:connector-curvature="0" /><path
       d="m 1070.73,960.398 c -0.62,0.262 -5.29,2.243 -12.58,2.25 -7.06,0.028 -16.6,-1.992 -26.34,-9.062 -9.75,-7.063 -19.6,-18.926 -28.32,-38.148 -1.6,-3.52 -0.04,-7.672 3.48,-9.27 3.52,-1.598 7.67,-0.039 9.27,3.48 8,17.622 16.48,27.313 23.78,32.594 7.33,5.27 13.56,6.379 18.13,6.406 2.34,0 4.22,-0.324 5.45,-0.628 l 1.33,-0.383 0.24,-0.086 0.75,1.91 -0.83,-1.883 0.08,-0.027 0.75,1.91 -0.83,-1.883 c 3.54,-1.555 7.67,0.055 9.23,3.594 1.55,3.539 -0.05,7.668 -3.59,9.226"
       style="fill:#231f20;fill-opacity:1;fill-rule:nonzero;stroke:none"
       id="path136"
       inkscape:connector-curvature="0" /><path
       d="m 407.617,980.863 c 0,0 -61.582,49.377 -84.719,-28.054 -26.57,-88.957 62.493,-185.93 102.922,-193.516"
       style="fill:#fcd0b4;fill-opacity:1;fill-rule:nonzero;stroke:none"
       id="path138"
       inkscape:connector-curvature="0" /><path
       d="m 411.996,986.324 c -0.246,0.196 -5.398,4.317 -13.461,8.508 -8.07,4.16 -19.074,8.508 -31.344,8.548 -9.586,0.04 -20.05,-2.91 -29.089,-10.716 -9.063,-7.785 -16.567,-19.976 -21.911,-37.851 -3.558,-11.918 -5.156,-23.965 -5.156,-35.875 0.055,-41.274 18.926,-80.708 42.094,-110.907 11.613,-15.105 24.348,-27.914 36.641,-37.508 12.343,-9.566 24.066,-16.039 34.757,-18.113 3.801,-0.711 7.461,1.789 8.172,5.59 0.715,3.801 -1.789,7.457 -5.586,8.172 -6.968,1.242 -17.554,6.617 -28.734,15.391 -16.852,13.128 -35.399,33.652 -49.512,57.804 -14.148,24.164 -23.851,51.91 -23.832,79.571 0,10.664 1.426,21.328 4.574,31.867 4.825,16.152 11.2,25.746 17.61,31.238 6.433,5.469 13.027,7.289 19.972,7.332 8.809,0.035 18.02,-3.375 24.895,-6.969 3.437,-1.785 6.289,-3.582 8.25,-4.91 0.977,-0.668 1.734,-1.215 2.23,-1.582 l 0.543,-0.414 0.129,-0.098 c 3.016,-2.418 7.422,-1.933 9.84,1.082 2.418,3.016 1.934,7.422 -1.082,9.84"
       style="fill:#231f20;fill-opacity:1;fill-rule:nonzero;stroke:none"
       id="path140"
       inkscape:connector-curvature="0" /><path
       d="m 356.816,868.363 c 12.657,-28.789 36.661,-46.093 53.594,-38.652 16.953,7.461 20.41,36.836 7.735,65.644 -12.657,28.79 -36.661,46.094 -53.594,38.633 -16.953,-7.441 -20.391,-36.816 -7.735,-65.625"
       style="fill:#e59686;fill-opacity:1;fill-rule:nonzero;stroke:none"
       id="path142"
       inkscape:connector-curvature="0" /><path
       d="m 352.387,947.578 -0.824,1.879 0.753,-1.906 0.071,0.027 -0.824,1.879 0.753,-1.906 c 0.207,0.086 2.922,1.105 7.02,1.097 4.566,-0.027 10.805,-1.136 18.125,-6.406 7.305,-5.281 15.781,-14.969 23.781,-32.594 1.598,-3.519 5.746,-5.078 9.27,-3.48 3.519,1.598 5.078,5.75 3.48,9.27 -8.722,19.218 -18.57,31.085 -28.32,38.148 -9.734,7.07 -19.277,9.09 -26.336,9.062 -7.289,-0.007 -11.965,-1.988 -12.582,-2.25 -3.539,-1.554 -5.149,-5.687 -3.594,-9.226 1.559,-3.539 5.688,-5.149 9.227,-3.594"
       style="fill:#231f20;fill-opacity:1;fill-rule:nonzero;stroke:none"
       id="path144"
       inkscape:connector-curvature="0" /><path
       d="m 958.066,1272.78 c 76.404,-208.42 65.894,-504.846 -11.816,-610.635 -60,-81.672 -140.84,-120 -237.5,-120 -96.672,0 -177.5,38.328 -237.5,120 -81.562,111.011 -88.34,435.825 0.828,643.325 l 1.692,2.21 c 75.878,53.43 191.64,56.96 191.64,56.96 0,0 -71.992,-35.51 -61.601,-47.12 10.769,-12.05 79.746,-18.02 143.261,0.45 91.68,26.67 114.59,64.8 114.59,64.8 0,0 5.801,-78.7 99.363,-111.28"
       style="fill:#fcd0b4;fill-opacity:1;fill-rule:nonzero;stroke:none"
       id="path146"
       inkscape:connector-curvature="0" /><path
       d="m 951.492,1270.37 c 35.094,-95.67 51.778,-210.66 51.768,-316.686 0,-61.246 -5.561,-119.516 -16.229,-169.293 -10.636,-49.774 -26.5,-91.039 -46.422,-118.106 -29.433,-40.047 -63.746,-69.23 -102.48,-88.5 -38.734,-19.262 -81.969,-28.637 -129.379,-28.64 -47.418,0.003 -90.648,9.378 -129.383,28.64 -38.73,19.27 -73.043,48.453 -102.476,88.5 -19.828,26.934 -35.602,68.223 -46.168,118.07 -10.594,49.852 -16.106,108.25 -16.102,169.598 -0.023,118.507 20.586,248.067 63.891,348.757 l -6.434,2.76 5.559,-4.25 1.691,2.21 -5.558,4.25 4.031,-5.72 c 36.609,25.82 83.719,39.94 121.594,47.37 18.937,3.72 35.562,5.81 47.418,6.96 5.925,0.57 10.66,0.91 13.898,1.11 1.617,0.1 2.863,0.16 3.695,0.2 l 1.219,0.04 -0.215,7 -3.097,6.28 c -0.098,-0.05 -15.86,-7.82 -31.825,-17.42 -7.996,-4.82 -16.023,-10.06 -22.351,-15.23 -3.172,-2.61 -5.926,-5.17 -8.133,-7.92 -2.117,-2.76 -4.102,-5.72 -4.223,-10.18 -0.051,-2.53 1.032,-5.4 2.813,-7.32 l -0.004,0.01 c 2.738,-2.98 6.094,-4.75 10.109,-6.38 11.957,-4.66 30.961,-7.22 54.129,-7.27 25.809,0 56.465,3.4 86.195,12.04 93.102,27.02 117.793,66.4 118.637,67.91 l -6,3.61 -6.98,-0.52 c 0.058,-0.66 1.625,-21.29 15.453,-46.29 13.777,-25 40.152,-54.26 88.59,-71.08 3.652,-1.27 7.64,0.66 8.914,4.31 1.269,3.65 -0.657,7.64 -4.309,8.91 -45.129,15.77 -68.433,42.14 -80.949,64.64 -6.227,11.25 -9.684,21.54 -11.566,28.95 -0.942,3.7 -1.493,6.69 -1.801,8.7 -0.157,1 -0.25,1.77 -0.309,2.26 l -0.055,0.53 -0.007,0.1 c -0.223,3.04 -2.399,5.59 -5.36,6.3 -2.961,0.7 -6.054,-0.6 -7.621,-3.2 l 1.149,-0.7 -1.133,0.72 -0.016,-0.02 1.149,-0.7 -1.133,0.72 c -0.563,-0.81 -23.117,-36.22 -110.563,-61.7 -28.179,-8.21 -57.707,-11.5 -82.285,-11.49 -14.66,-0.01 -27.574,1.17 -37.242,3.07 -4.824,0.94 -8.84,2.07 -11.738,3.22 -2.903,1.11 -4.629,2.39 -4.821,2.69 l -0.004,0.01 -2.257,-2.03 3.015,0 -0.758,2.03 -2.257,-2.03 3.015,0 -1.726,0 1.683,-0.44 0.043,0.44 -1.726,0 1.683,-0.44 0.071,0.18 c 0.242,0.58 1.359,2.17 3.195,3.96 3.203,3.19 8.414,7.15 14.289,11.06 8.824,5.89 19.187,11.79 27.293,16.18 4.055,2.19 7.551,4.02 10.023,5.28 2.473,1.27 3.895,1.97 3.899,1.97 2.957,1.46 4.492,4.78 3.695,7.98 -0.801,3.2 -3.711,5.4 -7.008,5.3 -0.257,-0.01 -29.527,-0.91 -68.504,-8.57 -38.972,-7.7 -87.683,-22.06 -126.953,-49.67 l -1.527,-1.47 -1.688,-2.2 -0.875,-1.49 c -44.312,-103.2 -65.003,-234.17 -65.027,-354.287 0.004,-62.187 5.563,-121.457 16.406,-172.508 10.879,-51.054 26.922,-93.902 48.582,-123.449 30.567,-41.621 66.668,-72.437 107.524,-92.746 40.847,-20.324 86.363,-30.113 135.617,-30.105 49.246,-0.008 94.766,9.781 135.613,30.105 40.856,20.309 76.957,51.125 107.528,92.746 21.734,29.649 37.879,72.477 48.829,123.461 10.92,50.981 16.53,110.129 16.54,172.227 -0.02,107.486 -16.81,223.786 -52.619,321.506 -1.332,3.63 -5.356,5.49 -8.985,4.16 -3.629,-1.33 -5.492,-5.35 -4.164,-8.98"
       style="fill:#231f20;fill-opacity:1;fill-rule:nonzero;stroke:none"
       id="path148"
       inkscape:connector-curvature="0" /><path
       d="m 682.645,966.609 0.148,-0.593 c 0.738,-3.028 3.891,-17.219 3.883,-34.403 0,-6.55 -0.457,-13.531 -1.645,-20.48 -0.648,-3.813 1.914,-7.43 5.727,-8.078 3.808,-0.649 7.426,1.914 8.078,5.722 1.344,7.891 1.836,15.641 1.84,22.836 -0.016,21.551 -4.406,38.2 -4.492,38.563 -0.985,3.738 -4.813,5.969 -8.551,4.984 -3.738,-0.98 -5.973,-4.808 -4.988,-8.551"
       style="fill:#231f20;fill-opacity:1;fill-rule:nonzero;stroke:none"
       id="path150"
       inkscape:connector-curvature="0" /><path
       d="m 699.621,930.715 c -0.062,-0.078 -7.777,-9.723 -15.683,-21.238 -3.958,-5.766 -7.961,-11.993 -11.129,-17.86 -1.582,-2.941 -2.961,-5.793 -4.024,-8.547 -1.051,-2.773 -1.84,-5.402 -2.023,-8.308 l 0,-0.004 -0.028,-0.992 c 0.071,-5.586 2.246,-10.387 4.887,-14.996 4.031,-6.86 9.606,-13.258 14.231,-18.133 4.621,-4.852 8.281,-8.094 8.382,-8.188 2.895,-2.562 7.321,-2.297 9.883,0.598 2.563,2.894 2.293,7.32 -0.597,9.883 l -0.231,0.207 c -1.238,1.113 -7.273,6.679 -12.789,13.289 -2.754,3.293 -5.371,6.851 -7.164,10.058 -1.836,3.188 -2.66,6.047 -2.602,7.282 l 0.004,0.214 0,-0.003 c 0.012,0.535 0.344,2.109 1.114,4.058 2.652,7.024 9.945,18.434 16.449,27.567 3.262,4.597 6.34,8.711 8.594,11.66 1.125,1.476 2.046,2.66 2.683,3.472 l 0.977,1.235 c 2.414,3.019 1.925,7.426 -1.094,9.84 -3.02,2.414 -7.426,1.925 -9.84,-1.094"
       style="fill:#231f20;fill-opacity:1;fill-rule:nonzero;stroke:none"
       id="path152"
       inkscape:connector-curvature="0" /><path
       d="m 636.902,1231.31 c -0.117,-3.73 -20.261,-5.71 -42.742,-10.82 -11.23,-2.54 -22.988,-5.92 -33.105,-9.94 -10.157,-3.98 -18.582,-8.6 -24.258,-12.12 -11.445,-6.94 -20.527,-14.38 -27.246,-20.37 -6.758,-5.93 -11.231,-10.22 -14.715,-9.36 -3.527,0.78 -4.973,8.76 -0.727,19.53 4.055,10.72 14.387,23.68 29.016,32.49 7.234,4.48 18.125,9.44 30.449,12.72 12.305,3.36 25.918,5.1 38.367,5.39 24.993,0.62 45.129,-4.06 44.961,-7.52"
       style="fill:#4d342a;fill-opacity:1;fill-rule:nonzero;stroke:none"
       id="path154"
       inkscape:connector-curvature="0" /><path
       d="m 636.902,1231.31 -4.996,0.16 3.75,-0.12 -3.058,2.21 c -0.293,-0.38 -0.672,-1.18 -0.692,-2.09 l 3.75,-0.12 -3.058,2.21 1.82,-1.31 -1.32,1.84 -0.5,-0.53 1.82,-1.31 -1.32,1.84 -0.235,-0.13 c -0.691,-0.36 -2.574,-0.98 -5.05,-1.57 -7.536,-1.83 -20.676,-3.83 -34.762,-7.02 l 0.008,0 c -11.43,-2.59 -23.395,-6.02 -33.852,-10.17 l 0.008,0 0.015,0.01 c -10.503,-4.13 -19.175,-8.88 -25.066,-12.53 l 0.016,0.01 0.023,0.02 c -11.797,-7.16 -21.125,-14.81 -27.976,-20.92 l 0.011,0.01 0.012,0.02 c -3.113,-2.75 -5.699,-5.07 -7.652,-6.53 -0.969,-0.73 -1.782,-1.23 -2.305,-1.48 l -0.539,-0.21 0.004,-0.01 0,-1.15 0.273,1.11 -0.273,0.04 0,-1.15 0.273,1.11 -0.058,0.02 -0.059,0.01 -0.449,-2.04 1.461,1.52 -1.012,0.52 -0.449,-2.04 1.461,1.52 -0.664,-0.69 0.769,0.58 -0.105,0.11 -0.664,-0.69 0.769,0.58 -0.07,0.14 c -0.184,0.38 -0.469,1.5 -0.457,3.09 -0.008,2.48 0.613,6.06 2.258,10.21 l 0.011,0.03 0.016,0.04 c 3.504,9.42 13.242,21.8 26.914,29.97 l 0.027,0.02 0.028,0.01 c 6.742,4.19 17.289,9.01 29.101,12.15 l 0.012,0 0.02,0.01 c 11.824,3.23 25.097,4.93 37.172,5.22 l 0.003,0 c 1.465,0.03 2.918,0.05 4.344,0.05 11.07,0 20.934,-1.05 27.797,-2.45 3.414,-0.69 6.109,-1.49 7.617,-2.14 l 0.867,-0.41 0.262,-0.17 0.379,0.53 -0.441,-0.47 0.062,-0.06 0.379,0.53 -0.441,-0.47 2.437,2.58 -3.422,0 c 0.039,-1.69 0.864,-2.46 0.985,-2.58 l 2.437,2.58 -3.422,0 3.942,0 -3.942,0.16 0,-0.16 3.942,0 -3.942,0.16 0,-0.05 4.996,-0.16 4.996,-0.2 0.008,0.25 c 0,1.36 -0.48,2.53 -1.004,3.33 -1.019,1.5 -2.074,2.17 -3.136,2.81 -1.864,1.07 -4.012,1.83 -6.672,2.58 -7.903,2.17 -20.258,3.8 -34.684,3.81 -1.508,0 -3.039,-0.02 -4.59,-0.06 l 0.004,0 c -12.828,-0.3 -26.781,-2.08 -39.566,-5.56 l 0.012,0 0.019,0 c -12.836,-3.42 -24.066,-8.52 -31.797,-13.3 l 2.633,-4.25 -2.578,4.28 c -15.586,-9.44 -26.512,-22.97 -31.113,-35 l 4.675,-1.77 -4.648,1.83 c -2.027,-5.15 -2.953,-9.84 -2.957,-13.88 0.008,-2.66 0.379,-5.05 1.363,-7.25 0.938,-2.13 2.852,-4.43 5.887,-5.12 l 1.082,4.89 -1.199,-4.86 2.121,-0.25 c 3.758,0.11 6.258,1.85 8.832,3.7 2.562,1.92 5.199,4.33 8.262,7.01 l 0.011,0.02 0.016,0.01 c 6.582,5.86 15.418,13.1 26.512,19.83 l 0.019,0.01 0.02,0.01 c 5.457,3.38 13.64,7.87 23.453,11.71 l 0.004,0.01 0.015,0.01 c 9.778,3.89 21.332,7.22 32.36,9.71 l 0.035,0.01 -0.027,-0.01 c 11.07,2.51 21.64,4.27 29.648,5.9 4.02,0.82 7.367,1.59 10.07,2.53 1.367,0.49 2.575,0.98 3.821,1.83 l 1.894,1.82 c 0.613,0.83 1.164,2.08 1.199,3.46 l 0,-0.02 -0.004,-0.03 -4.996,0.2"
       style="fill:#231f20;fill-opacity:1;fill-rule:nonzero;stroke:none"
       id="path156"
       inkscape:connector-curvature="0" /><path
       d="m 778.75,1236.2 c -0.41,3.43 19.355,9.48 44.336,10.59 12.441,0.56 26.144,-0.24 38.652,-2.74 12.508,-2.42 23.723,-6.62 31.242,-10.61 15.204,-7.77 26.395,-20 31.18,-30.42 4.973,-10.45 4.082,-18.5 0.625,-19.54 -3.43,-1.09 -8.176,2.88 -15.332,8.34 -7.109,5.52 -16.68,12.31 -28.574,18.45 -5.899,3.11 -14.629,7.15 -25.039,10.42 -10.371,3.33 -22.324,5.88 -33.711,7.63 -22.774,3.57 -43.008,4.16 -43.379,7.88"
       style="fill:#4d342a;fill-opacity:1;fill-rule:nonzero;stroke:none"
       id="path158"
       inkscape:connector-curvature="0" /><path
       d="m 778.75,1236.2 4.965,0.59 -4.078,-0.49 4.105,0 -0.027,0.49 -4.078,-0.49 4.105,0 -3.719,0 3.157,-2.02 c 0.211,0.33 0.562,1.03 0.562,2.02 l -3.719,0 3.157,-2.02 -1.5,0.96 1.183,-1.36 0.317,0.4 -1.5,0.96 1.183,-1.36 c 0.051,0.1 1.598,1.03 3.867,1.83 6.93,2.58 20.758,5.4 36.579,6.09 2.414,0.1 4.879,0.16 7.375,0.16 9.98,0 20.457,-0.89 30.074,-2.82 l 0.015,0 0.016,0 c 11.988,-2.32 22.848,-6.4 29.848,-10.12 l 0.031,-0.01 0.035,-0.02 c 14.203,-7.21 24.762,-18.9 28.914,-28.06 l 0.012,-0.03 0.016,-0.02 c 2.195,-4.59 3.003,-8.55 2.988,-11 0.012,-1.25 -0.223,-2.08 -0.324,-2.27 l -0.012,-0.04 1.574,-1.04 -0.519,1.74 -1.055,-0.7 1.574,-1.04 -0.519,1.74 -0.043,-0.01 -0.043,-0.02 0.312,-0.97 0,1.03 -0.312,-0.06 0.312,-0.97 0,1.03 -0.117,0.02 c -0.457,0.08 -1.953,0.79 -3.852,2.14 -1.921,1.32 -4.316,3.19 -7.125,5.34 l 0.024,-0.02 0.012,-0.01 c -7.262,5.64 -17.09,12.61 -29.348,18.94 l 0.019,-0.01 0.024,-0.01 c -6.125,3.23 -15.106,7.38 -25.875,10.77 l 0.012,-0.01 0.015,0 c -10.722,3.44 -22.887,6.03 -34.48,7.82 l 0.015,0 c -11.558,1.8 -22.398,2.85 -30.203,3.89 -3.886,0.52 -7.047,1.05 -8.89,1.56 -0.911,0.24 -1.457,0.51 -1.457,0.51 l -1.125,-1.88 1.664,1.38 -0.539,0.5 -1.125,-1.88 1.664,1.38 -2.903,-2.41 3.739,0.37 c -0.082,0.91 -0.516,1.68 -0.836,2.04 l -2.903,-2.41 3.739,0.37 -0.008,0.05 -0.004,0.05 -4.965,-0.59 -4.977,-0.5 c 0.129,-1.37 0.766,-2.58 1.434,-3.36 1.293,-1.48 2.512,-2 3.703,-2.52 2.094,-0.82 4.418,-1.31 7.27,-1.8 8.449,-1.42 21.359,-2.47 35.175,-4.63 l 0.008,-0.01 0.008,0 c 11.18,-1.71 22.922,-4.23 32.942,-7.45 l 0.011,-0.01 0.016,0 c 10.051,-3.16 18.531,-7.08 24.203,-10.07 l 0.023,-0.01 0.02,-0.02 c 11.531,-5.95 20.844,-12.55 27.801,-17.95 l 0.011,-0.01 0.024,-0.02 c 3.144,-2.39 5.875,-4.56 8.488,-6.28 2.629,-1.66 5.121,-3.17 8.668,-3.26 0.887,0 1.82,0.13 2.727,0.42 l -1.52,4.76 1.434,-4.79 c 2.636,0.79 4.355,2.86 5.207,4.81 0.887,1.99 1.199,4.1 1.207,6.38 -0.012,4.42 -1.258,9.59 -3.957,15.29 l -4.516,-2.15 4.543,2.09 c -5.418,11.68 -17.242,24.44 -33.449,32.78 l -2.274,-4.45 2.34,4.42 c -8.039,4.25 -19.601,8.57 -32.632,11.1 l 0.019,-0.01 0.012,0 c -10.399,2.08 -21.461,3.01 -32.035,3.01 -2.645,0 -5.258,-0.06 -7.821,-0.17 -12.707,-0.57 -24.066,-2.36 -32.465,-4.52 -4.21,-1.09 -7.66,-2.24 -10.351,-3.51 -1.356,-0.65 -2.527,-1.31 -3.645,-2.24 l -1.64,-1.84 c -0.516,-0.8 -1.016,-1.95 -1.02,-3.38 l 0.043,-0.7 4.965,0.6 -4.977,-0.5 4.977,0.5"
       style="fill:#231f20;fill-opacity:1;fill-rule:nonzero;stroke:none"
       id="path160"
       inkscape:connector-curvature="0" /><path
       d="m 378.742,1004.28 c 0,0.01 -0.207,0.88 -0.597,2.66 -2.731,12.42 -13.805,67.06 -13.797,131.42 -0.008,39.76 4.238,83.21 17.058,122.58 12.84,39.42 34.094,74.6 68.071,98.83 0.996,0.71 1.777,1.66 2.289,2.77 l 0.004,0.01 c 0.71,1.41 22.308,45.02 114.585,97.25 l 0,0 c 46.622,26.39 100.454,38.47 150.25,38.46 39.5,0.01 76.434,-7.62 105.012,-21.32 28.653,-13.73 48.598,-33.27 55.856,-56.86 0.785,-2.54 2.937,-4.42 5.558,-4.85 l 0.121,-0.02 c 1.688,-0.29 19.606,-3.66 42.664,-15.07 23.071,-11.43 51.223,-30.83 73.856,-63.25 16.218,-23.26 29.018,-48.3 37.878,-79.59 8.85,-31.27 13.72,-68.85 13.72,-116.91 0,-37.84 -3.02,-82.15 -9.47,-134.9 -0.47,-3.84 2.26,-7.326 6.1,-7.795 3.84,-0.468 7.33,2.262 7.8,6.095 6.49,53.17 9.57,98.02 9.57,136.6 0,48.99 -4.97,87.9 -14.25,120.73 -9.27,32.82 -22.91,59.49 -39.87,83.78 -25.056,35.9 -56.435,56.92 -81.494,68.94 -25.074,12.03 -43.898,15.13 -44.371,15.21 l -1.125,-6.91 6.688,2.07 c -8.844,28.55 -32.282,50.56 -63.184,65.36 -30.973,14.81 -69.766,22.68 -111.059,22.69 l 0,0 c -52.031,-0.01 -108.078,-12.54 -157.14,-40.28 l 0,0 C 462.039,1416.9 439.664,1369.79 439.055,1368.4 l 6.355,-2.93 -4.066,5.7 c -37.031,-26.41 -59.809,-64.54 -73.25,-105.9 -13.457,-41.38 -17.739,-86.16 -17.746,-126.91 0.011,-75.36 14.711,-137 14.777,-137.32 0.895,-3.763 4.672,-6.087 8.43,-5.188 3.761,0.894 6.086,4.668 5.187,8.428"
       style="fill:#231f20;fill-opacity:1;fill-rule:nonzero;stroke:none"
       id="path162"
       inkscape:connector-curvature="0" /><path
       d="m 409.16,991.52 40.625,0 c 2.762,0 5,2.238 5,5 0,2.757 -2.238,5 -5,5 l -40.625,0 c -2.762,0 -5,-2.243 -5,-5 0,-2.762 2.238,-5 5,-5"
       style="fill:#231f20;fill-opacity:1;fill-rule:nonzero;stroke:none"
       id="path164"
       inkscape:connector-curvature="0" /><path
       d="m 1006.66,1001.52 -40.625,0 c -2.762,0 -5,-2.243 -5,-5 0,-2.762 2.238,-5 5,-5 l 40.625,0 c 2.76,0 5,2.238 5,5 0,2.757 -2.24,5 -5,5"
       style="fill:#231f20;fill-opacity:1;fill-rule:nonzero;stroke:none"
       id="path166"
       inkscape:connector-curvature="0" /><path
       d="m 544.094,940.512 c 0,-17.696 -28.281,-32.039 -63.156,-32.039 -34.875,0 -63.172,14.343 -63.172,32.039 0,17.695 28.297,32.019 63.172,32.019 34.875,0 63.156,-14.324 63.156,-32.019"
       style="fill:#f68489;fill-opacity:1;fill-rule:nonzero;stroke:none"
       id="path168"
       inkscape:connector-curvature="0" /><path
       d="m 982.992,939.734 c 0,-17.695 -28.281,-32.039 -63.152,-32.039 -34.875,0 -63.176,14.344 -63.176,32.039 0,17.696 28.301,32.024 63.176,32.024 34.871,0 63.152,-14.328 63.152,-32.024"
       style="fill:#f68489;fill-opacity:1;fill-rule:nonzero;stroke:none"
       id="path170"
       inkscape:connector-curvature="0" /><path
       d="m 460.137,1287.81 c 5.531,5.07 11.449,9.77 17.664,14.15 3.16,2.22 3.918,6.59 1.691,9.75 -2.226,3.16 -6.59,3.92 -9.754,1.69 -6.656,-4.69 -13.043,-9.76 -19.054,-15.26 -2.852,-2.61 -3.047,-7.04 -0.438,-9.89 2.609,-2.86 7.039,-3.05 9.891,-0.44"
       style="fill:#231f20;fill-opacity:1;fill-rule:nonzero;stroke:none"
       id="path172"
       inkscape:connector-curvature="0" /><path
       d="m 958.719,1264.88 c 3.679,-1.28 7.48,-2.49 11.418,-3.63 3.715,-1.07 7.593,1.07 8.668,4.78 1.074,3.71 -1.067,7.6 -4.782,8.67 -3.703,1.07 -7.261,2.2 -10.691,3.4 -3.652,1.27 -7.641,-0.65 -8.918,-4.31 -1.269,-3.65 0.656,-7.64 4.305,-8.91"
       style="fill:#231f20;fill-opacity:1;fill-rule:nonzero;stroke:none"
       id="path174"
       inkscape:connector-curvature="0" /><path
       d="m 471.887,1058.39 3.718,-3.34 c 6.442,7.28 19.606,13.99 36.145,18.49 16.531,4.54 36.379,7.07 56.266,7.07 33.91,0.08 67.937,-7.55 86.031,-23.36 12.09,-10.47 18.336,-25.11 18.367,-41.9 0.024,-23.514 -12.625,-51.209 -40.012,-74.905 -20.879,-18.113 -51.738,-29.308 -81.656,-29.277 -28.59,0.027 -55.988,10 -74.125,32.969 -15.137,19.195 -21.223,39.008 -21.234,57.333 -0.008,20.96 8.062,40.06 20.218,53.58 l -3.718,3.34 -3.723,3.34 c -13.773,-15.34 -22.769,-36.71 -22.777,-60.26 -0.016,-20.568 6.945,-42.732 23.383,-63.529 20.402,-25.847 51.156,-36.8 81.976,-36.773 32.367,0.031 65.18,11.84 88.199,31.715 29.11,25.203 43.446,55.359 43.469,82.467 0.031,19.29 -7.426,37.06 -21.832,49.47 -21.543,18.44 -57.242,25.71 -92.566,25.79 -20.735,0 -41.344,-2.61 -58.914,-7.43 -17.567,-4.88 -32.157,-11.77 -40.938,-21.45 l 3.723,-3.34"
       style="fill:#231f20;fill-opacity:1;fill-rule:nonzero;stroke:none"
       id="path176"
       inkscape:connector-curvature="0" /><path
       d="m 942.969,1058.39 3.719,3.34 c -8.782,9.68 -23.368,16.57 -40.934,21.45 -17.574,4.82 -38.184,7.43 -58.918,7.43 -35.32,-0.08 -71.023,-7.35 -92.566,-25.79 -14.407,-12.41 -21.86,-30.18 -21.832,-49.47 0.023,-27.108 14.359,-57.264 43.468,-82.467 23.02,-19.875 55.832,-31.684 88.203,-31.715 30.821,-0.027 61.571,10.926 81.973,36.773 16.438,20.797 23.398,42.961 23.387,63.529 -0.008,23.55 -9.004,44.92 -22.781,60.26 l -3.719,-3.34 -3.719,-3.34 c 12.152,-13.52 20.227,-32.62 20.219,-53.58 -0.016,-18.325 -6.098,-38.138 -21.235,-57.333 -18.136,-22.969 -45.539,-32.942 -74.125,-32.969 -29.921,-0.031 -60.781,11.164 -81.656,29.277 -27.387,23.696 -40.035,51.391 -40.015,74.905 0.031,16.79 6.281,31.43 18.371,41.9 18.089,15.81 52.117,23.44 86.027,23.36 19.891,0 39.738,-2.53 56.269,-7.07 16.536,-4.5 29.704,-11.21 36.145,-18.49 l 3.719,3.34"
       style="fill:#231f20;fill-opacity:1;fill-rule:nonzero;stroke:none"
       id="path178"
       inkscape:connector-curvature="0" /><path
       d="m 679.5,1010.88 0.066,0.03 c 0.985,0.47 11.832,5.21 24.938,5.18 9.562,-0.02 20.144,-2.38 29.805,-10.41 2.121,-1.77 5.273,-1.48 7.043,0.64 1.765,2.12 1.48,5.27 -0.641,7.04 -11.762,9.81 -25.004,12.75 -36.207,12.73 -16.473,-0.03 -28.934,-6.04 -29.316,-6.2 -2.493,-1.19 -3.547,-4.17 -2.356,-6.66 1.191,-2.5 4.18,-3.55 6.668,-2.35"
       style="fill:#231f20;fill-opacity:1;fill-rule:nonzero;stroke:none"
       id="path180"
       inkscape:connector-curvature="0" /><path
       d="m 1034.21,230.582 c 0,0 -0.2,-0.684 -0.64,-2.023 -1.56,-4.688 -5.91,-16.868 -12.85,-29.707 -6.91,-12.864 -16.51,-26.282 -27.822,-33.582 -2.312,-1.508 -2.968,-4.598 -1.464,-6.918 1.507,-2.313 4.601,-2.973 6.918,-1.461 15.598,10.218 26.628,27.89 34.148,42.961 7.46,15.089 11.24,27.687 11.29,27.859 0.8,2.641 -0.71,5.43 -3.35,6.219 -2.65,0.8 -5.43,-0.7 -6.23,-3.348"
       style="fill:#231f20;fill-opacity:1;fill-rule:nonzero;stroke:none"
       id="path182"
       inkscape:connector-curvature="0" /><path
       d="m 612.348,527.184 c -0.133,-0.024 -40.032,-6.317 -93.938,-19.524 -53.922,-13.219 -121.816,-33.301 -178.234,-61.18 -3.469,-1.71 -4.887,-5.91 -3.176,-9.371 1.715,-3.468 5.914,-4.89 9.379,-3.179 54.828,27.129 122.016,47.082 175.363,60.129 26.68,6.543 49.91,11.371 66.453,14.562 8.274,1.598 14.871,2.777 19.395,3.57 4.523,0.782 6.93,1.161 6.937,1.161 3.821,0.601 6.426,4.187 5.825,8.007 -0.602,3.817 -4.184,6.426 -8.004,5.825"
       style="fill:#231f20;fill-opacity:1;fill-rule:nonzero;stroke:none"
       id="path184"
       inkscape:connector-curvature="0" /><path
       d="M 68.0586,499.398 C 68.043,499.371 53.9648,465.371 38.7695,425.582 31.168,405.672 23.293,384.32 16.7461,364.988 10.1953,345.641 4.97656,328.43 2.64844,316.25 0.945313,307.301 -0.00390625,297.941 -0.00390625,288.469 l 0,0 C 0.00390625,267.73 4.53906,246.398 16.043,228.23 c 11.4648,-18.179 30.0898,-32.89 56.6914,-39.878 19.1289,-5.071 38.6956,-6.954 57.8596,-6.961 39.418,0.007 77.285,7.949 106.422,13.179 50.078,9.012 179.785,36.34 179.828,36.352 3.781,0.797 6.203,4.508 5.406,8.289 -0.797,3.777 -4.512,6.199 -8.293,5.41 -0.019,-0.012 -8.105,-1.711 -21.047,-4.41 -38.805,-8.109 -121.199,-25.18 -158.375,-31.859 -29.398,-5.301 -66.379,-12.973 -103.941,-12.961 -18.25,0 -36.6057,1.808 -54.2737,6.488 -23.5508,6.293 -38.6914,18.531 -48.4531,33.84 -9.7227,15.32 -13.875,34.031 -13.8711,52.75 0,8.531 0.8594,17.043 2.4062,25.172 2.0469,10.82 7.1446,27.828 13.6016,46.859 9.6914,28.609 22.4492,62.039 32.7774,88.27 5.164,13.121 9.7187,24.441 12.9843,32.492 3.2617,8.039 5.2227,12.769 5.2266,12.777 1.4805,3.582 -0.2149,7.672 -3.7852,9.152 -3.5742,1.481 -7.6679,-0.222 -9.1484,-3.793"
       style="fill:#231f20;fill-opacity:1;fill-rule:nonzero;stroke:none"
       id="path186"
       inkscape:connector-curvature="0" /><path
       d="m 227.234,393.98 c -0.007,-0.019 -2.437,-7.39 -6.113,-18.531 -11.027,-33.398 -33.211,-100.597 -34.133,-103.367 -1.222,-3.672 0.758,-7.633 4.426,-8.852 3.668,-1.23 7.633,0.758 8.856,4.418 1.261,3.793 40.257,121.934 40.257,121.942 1.215,3.672 -0.781,7.629 -4.453,8.84 -3.668,1.211 -7.629,-0.782 -8.84,-4.45"
       style="fill:#231f20;fill-opacity:1;fill-rule:nonzero;stroke:none"
       id="path188"
       inkscape:connector-curvature="0" /><path
       d="m 1856.04,214.988 c 0.02,-0.008 35.62,-7.726 75.95,-15.707 20.17,-4 41.51,-8.051 60.23,-11.242 18.75,-3.199 34.7,-5.527 44.73,-6.07 3.7,-0.199 7.37,-0.297 11.02,-0.297 24.73,0.019 48.26,4.699 66.14,18.406 8.9,6.852 16.22,15.981 21.17,27.442 4.97,11.46 7.6,25.171 7.6,41.351 0,3.598 -0.13,7.32 -0.39,11.16 -0.61,8.528 -3.18,20.141 -7.05,34.231 -11.62,42.078 -35.26,105.289 -54.91,150.797 -15.94,36.921 -27.3,57.136 -27.4,57.324 -1.9,3.367 -6.17,4.562 -9.54,2.668 -3.37,-1.895 -4.56,-6.164 -2.66,-9.531 l 0.47,-0.864 c 2.28,-4.156 12.53,-23.285 26.28,-55.144 12.93,-29.942 27.72,-67.961 39.49,-102.133 5.88,-17.078 11.02,-33.207 14.78,-46.848 3.77,-13.601 6.14,-24.859 6.57,-31.453 0.24,-3.547 0.36,-6.949 0.36,-10.207 0,-14.68 -2.39,-26.422 -6.44,-35.781 -6.12,-14.008 -15.84,-23 -28.6,-28.961 -12.75,-5.918 -28.62,-8.469 -45.87,-8.457 -3.38,0 -6.81,0.098 -10.28,0.277 -8.74,0.449 -24.64,2.731 -43.12,5.891 -27.78,4.73 -61.7,11.449 -88.65,16.969 -13.47,2.761 -25.2,5.23 -33.57,7.011 -8.36,1.77 -13.33,2.852 -13.34,2.852 -3.78,0.816 -7.51,-1.582 -8.33,-5.363 -0.82,-3.77 1.58,-7.5 5.36,-8.321"
       style="fill:#231f20;fill-opacity:1;fill-rule:nonzero;stroke:none"
       id="path190"
       inkscape:connector-curvature="0" /><path
       d="m 1935.27,413.02 c 0.01,-0.02 8.06,-29.809 18.3,-65.168 10.27,-35.411 22.66,-76.231 31.61,-98.961 2.49,-6.313 5.74,-13.832 9.46,-20.903 3.77,-7.09 7.86,-13.679 12.86,-18.476 2.8,-2.66 7.23,-2.551 9.89,0.25 2.67,2.808 2.55,7.238 -0.25,9.898 -2.97,2.77 -6.77,8.469 -10.11,14.86 -3.38,6.402 -6.47,13.531 -8.82,19.511 -8.55,21.649 -21,62.52 -31.19,97.707 -5.1,17.621 -9.67,33.864 -12.95,45.692 -3.28,11.832 -5.28,19.23 -5.29,19.242 -1,3.738 -4.85,5.937 -8.58,4.937 -3.73,-1.007 -5.94,-4.859 -4.93,-8.589"
       style="fill:#231f20;fill-opacity:1;fill-rule:nonzero;stroke:none"
       id="path192"
       inkscape:connector-curvature="0" /><path
       d="m 1946.88,375.641 c 9.35,-13.52 25.77,-19.711 42.51,-19.719 19.37,0.019 40.17,8.25 53.43,25.687 20.95,27.723 25.86,59.262 25.87,82.02 -0.01,13.172 -1.62,23.383 -3,28.91 -0.94,3.75 -4.75,6.031 -8.5,5.082 -3.75,-0.941 -6.02,-4.742 -5.08,-8.492 1.04,-4.09 2.59,-13.559 2.58,-25.5 0.01,-20.828 -4.59,-49.238 -23.03,-73.57 -10.05,-13.368 -26.79,-20.161 -42.27,-20.137 -13.46,-0.012 -25.21,5.09 -30.95,13.629 -2.18,3.187 -6.54,4 -9.73,1.82 -3.19,-2.18 -4.01,-6.543 -1.83,-9.73"
       style="fill:#231f20;fill-opacity:1;fill-rule:nonzero;stroke:none"
       id="path194"
       inkscape:connector-curvature="0" /><path
       d="m 1884.95,477.898 c 0,0 -38.75,23.332 -40,53.336 -0.94,22.52 4.42,75.129 2.99,96.047 -1.87,27.5 -7.5,62.5 -7.5,62.5 0,0 16.88,14.375 31.25,-4.375 l 25.63,-29.172 c 0,0 2.5,-115.828 2.5,-120 0,-4.168 -14.87,-58.336 -14.87,-58.336"
       style="fill:#fcd0b4;fill-opacity:1;fill-rule:nonzero;stroke:none"
       id="path196"
       inkscape:connector-curvature="0" /><path
       d="m 1884.95,477.898 3.61,6 -0.33,0.204 c -1.84,1.148 -11.06,7.16 -19.66,15.957 -4.3,4.382 -8.42,9.461 -11.45,14.836 -3.04,5.382 -4.95,10.992 -5.18,16.632 -0.07,1.703 -0.1,3.641 -0.1,5.762 -0.02,21.055 3.33,58.715 3.35,81.313 0,3.378 -0.08,6.441 -0.26,9.152 -1.92,27.996 -7.56,63.027 -7.57,63.137 l -6.92,-1.11 4.54,-5.332 -1.67,1.961 1.63,-1.992 0.04,0.031 -1.67,1.961 1.63,-1.992 c 0.1,0.191 5.11,3.773 9.75,3.629 1.65,-0.012 3.28,-0.32 5.14,-1.27 1.86,-0.957 3.99,-2.613 6.31,-5.632 l 0.3,-0.36 25.62,-29.172 5.26,4.621 -7,-0.148 c 0,-0.063 0.63,-28.957 1.25,-58.438 0.31,-14.738 0.63,-29.605 0.86,-41.046 0.23,-11.395 0.39,-19.567 0.39,-20.368 l 4.1,0 -4.09,0.329 -0.01,-0.329 4.1,0 -4.09,0.329 0.21,-0.016 -0.21,0.023 0,-0.007 0.21,-0.016 -0.21,0.023 c -0.03,-0.312 -0.32,-1.855 -0.77,-3.8 -1.57,-6.954 -5.06,-20.305 -8.12,-31.79 -3.08,-11.511 -5.74,-21.199 -5.74,-21.218 l 6.75,-1.864 3.61,6 -3.61,-6 6.75,-1.847 c 0,0.008 3.72,13.57 7.45,27.668 1.87,7.051 3.73,14.234 5.14,19.969 0.71,2.871 1.3,5.371 1.73,7.363 0.22,1 0.39,1.867 0.53,2.64 0.13,0.829 0.25,1.344 0.27,2.543 0,1.286 -0.16,9.157 -0.39,20.653 -0.71,34.343 -2.11,99.496 -2.11,99.5 -0.04,1.644 -0.65,3.23 -1.74,4.468 l -25.63,29.168 -5.26,-4.617 5.56,4.258 c -3.35,4.383 -7.09,7.547 -11.01,9.559 -3.9,2.023 -7.93,2.832 -11.55,2.824 -11.17,-0.18 -18.18,-6.563 -18.79,-6.938 -1.86,-1.593 -2.76,-4.015 -2.37,-6.441 0,-0.004 0.35,-2.145 0.9,-5.824 1.66,-11.035 5.15,-35.801 6.53,-56.039 0.15,-2.246 0.23,-5.039 0.23,-8.203 0.01,-21.512 -3.34,-59.157 -3.35,-81.313 0,-2.269 0.03,-4.391 0.11,-6.348 0.38,-8.984 3.53,-17.164 7.76,-24.269 12.77,-21.231 35.22,-34.422 35.63,-34.762 1.88,-1.14 4.16,-1.32 6.21,-0.5 2.04,0.809 3.56,2.52 4.15,4.641 l -6.75,1.847"
       style="fill:#231f20;fill-opacity:1;fill-rule:nonzero;stroke:none"
       id="path198"
       inkscape:connector-curvature="0" /><path
       d="m 1927.12,810.602 c 16.07,2.015 37.34,1.796 56.6,1.574 20.61,-0.235 38.92,-0.473 46.06,2.039 28.61,10.058 -2.62,37.715 -25.53,48.965 -25.36,12.461 -54.17,11.855 -81.21,2.808 -16.93,-5.664 -51.08,-21.383 -49.76,-39.957 1.3,-18.578 31.54,-18.234 53.84,-15.429"
       style="fill:#ffffff;fill-opacity:1;fill-rule:nonzero;stroke:none"
       id="path200"
       inkscape:connector-curvature="0" /><path
       d="m 1927.12,810.602 0.75,-5.954 c 10.55,1.329 23.85,1.672 37.33,1.668 12.36,0 24.89,-0.277 35.85,-0.277 6.59,0 12.61,0.098 17.76,0.434 5.18,0.363 9.37,0.851 12.96,2.078 4.71,1.668 8.5,3.871 11.27,6.937 2.78,3.035 4.24,7.047 4.2,10.852 -0.03,4.793 -1.88,9.094 -4.43,13.094 -7.76,11.847 -22.83,22.601 -35.91,29.129 -14.23,6.992 -29.46,10.109 -44.75,10.109 -13.8,-0.004 -27.65,-2.524 -41.01,-6.992 -8.72,-2.926 -21.47,-8.227 -32.51,-15.41 -5.51,-3.61 -10.62,-7.676 -14.56,-12.422 -3.91,-4.707 -6.82,-10.34 -6.83,-16.77 l 0.05,-1.48 0,0.011 c 0.29,-4.449 1.98,-8.539 4.63,-11.644 4,-4.695 9.56,-7.219 15.51,-8.746 5.98,-1.516 12.56,-2.031 19.23,-2.035 7.24,0 14.58,0.632 21.21,1.464 l -0.75,5.954 -0.74,5.953 c -6.28,-0.789 -13.18,-1.371 -19.72,-1.371 -8.02,-0.024 -15.53,0.945 -20.37,3.007 -2.43,1.016 -4.13,2.235 -5.2,3.504 -1.05,1.289 -1.65,2.606 -1.83,4.754 l 0.01,-0.09 -0.01,0.102 -0.02,0.617 c -0.02,2.625 1.23,5.692 4.06,9.11 4.19,5.097 11.64,10.324 19.53,14.542 7.88,4.243 16.2,7.594 22.12,9.571 12.28,4.109 24.87,6.371 37.2,6.367 13.67,0 27.01,-2.762 39.46,-8.875 7.64,-3.738 16.54,-9.637 23.2,-15.809 3.34,-3.078 6.11,-6.226 7.9,-9.039 1.83,-2.812 2.56,-5.207 2.53,-6.605 -0.04,-1.145 -0.23,-1.762 -1.13,-2.836 -0.92,-1.039 -2.87,-2.422 -6.32,-3.633 -1.46,-0.543 -5.1,-1.141 -9.76,-1.422 -4.69,-0.308 -10.51,-0.41 -16.98,-0.41 -10.76,0 -23.32,0.277 -35.85,0.277 -13.69,-0.003 -27.34,-0.324 -38.82,-1.761 l 0.74,-5.953"
       style="fill:#918f90;fill-opacity:1;fill-rule:nonzero;stroke:none"
       id="path202"
       inkscape:connector-curvature="0" /><path
       d="m 2044.82,827.348 0,-361.657 c 0,-15 -14.99,-40.011 -33.33,-50.839 l -106.67,0 c -18.34,10.828 -33.33,35.839 -33.33,50.839 l 0,361.657 173.33,0"
       style="fill:#ffffff;fill-opacity:1;fill-rule:nonzero;stroke:none"
       id="path204"
       inkscape:connector-curvature="0" /><g
       id="g206"><g
         id="g208"
         clip-path="url(#clipPath210)"><path
           d="m 1978.01,431.859 -39.71,0 c -15.6,0 -33.18,5.871 -39.08,13.051 -5.89,7.172 -10.72,33.531 -10.72,49.129 l 0,329.395 89.7,0 0,-391.575 c -0.06,0 -0.13,0 -0.19,0 m 30.19,9.602 0,381.973 19.61,0 0,-329.395 c 0,-15.598 -2.1,-33.918 -4.67,-40.73 -1.15,-3.039 -7.2,-7.668 -14.94,-11.848"
           style="fill:url(#linearGradient214);fill-opacity:1;fill-rule:nonzero;stroke:none"
           id="path220"
           inkscape:connector-curvature="0" /></g></g><path
       d="m 2008.2,426.879 -30,0 0,4.98 c 8.59,0.063 20.55,4.5 30,9.602 l 0,-14.582 m 0,396.555 -30,0 0,2.89 30,0 0,-2.89"
       style="fill:#ffffff;fill-opacity:1;fill-rule:nonzero;stroke:none"
       id="path222"
       inkscape:connector-curvature="0" /><g
       id="g224"><g
         id="g226"
         clip-path="url(#clipPath228)"><path
           d="m 1978.2,431.859 0,391.575 30,0 0,-381.973 c -9.45,-5.102 -21.41,-9.539 -30,-9.602"
           style="fill:url(#linearGradient232);fill-opacity:1;fill-rule:nonzero;stroke:none"
           id="path238"
           inkscape:connector-curvature="0" /></g></g><path
       d="m 2044.82,827.348 -7,0 0,-361.657 c 0.1,-5.25 -3.1,-14.582 -8.69,-23.222 -5.53,-8.731 -13.32,-16.981 -21.2,-21.59 l 3.56,-6.027 0,7 -106.67,0 0,-7 3.56,6.027 c -7.88,4.609 -15.67,12.859 -21.2,21.59 -5.59,8.64 -8.79,17.972 -8.69,23.222 l 0,354.657 166.33,0 0,7 -7,0 7,0 0,7 -173.33,0 c -1.84,0 -3.65,-0.746 -4.95,-2.051 -1.3,-1.305 -2.05,-3.106 -2.05,-4.949 l 0,-361.657 c 0.1,-9.761 4.4,-20.429 10.88,-30.75 6.56,-10.242 15.43,-19.91 25.89,-26.121 1.08,-0.64 2.3,-0.968 3.56,-0.968 l 106.67,0 c 1.26,0 2.47,0.328 3.56,0.968 10.46,6.211 19.33,15.879 25.89,26.121 6.48,10.321 10.78,20.989 10.88,30.75 l 0,361.657 c 0,1.843 -0.75,3.644 -2.05,4.949 -1.3,1.305 -3.11,2.051 -4.95,2.051 l 0,-7"
       style="fill:#393536;fill-opacity:1;fill-rule:nonzero;stroke:none"
       id="path240"
       inkscape:connector-curvature="0" /><path
       d="m 2082.03,757.563 c 5.85,-7.645 4.67,-19.793 -16.47,-36.004 -21.12,-16.211 -43.01,-23.164 -48.87,-15.5 -5.86,7.636 6.51,26.953 27.64,43.164 21.13,16.211 31.82,15.988 37.7,8.34"
       style="fill:#fcd0b4;fill-opacity:1;fill-rule:nonzero;stroke:none"
       id="path242"
       inkscape:connector-curvature="0" /><path
       d="m 2082.03,757.563 -5.56,-4.254 c 1.08,-1.457 1.57,-2.746 1.59,-4.496 0,-1.84 -0.65,-4.524 -3.16,-8.247 -2.5,-3.699 -6.84,-8.281 -13.6,-13.453 -7.25,-5.57 -14.58,-9.961 -21.06,-12.886 -6.45,-2.95 -12.14,-4.329 -15.38,-4.286 -1.23,-0.007 -2.05,0.18 -2.41,0.321 l -0.27,0.125 -0.2,-0.289 0.28,0.211 -0.08,0.078 -0.2,-0.289 0.28,0.211 -0.02,0.015 -0.39,-0.304 0.44,0.226 -0.05,0.078 -0.39,-0.304 0.44,0.226 -0.08,-0.043 0.09,0.031 -0.01,0.012 -0.08,-0.043 0.09,0.031 -0.06,0.602 c -0.03,0.863 0.35,2.746 1.44,5.117 3.21,7.238 12.4,18.192 24.91,27.715 11.86,9.207 19.86,12.086 23.33,11.937 1.24,-0.011 1.95,-0.23 2.59,-0.55 0.63,-0.332 1.25,-0.836 1.97,-1.758 l -0.01,0.012 5.56,4.254 5.55,4.265 c -1.71,2.231 -3.92,4.246 -6.62,5.649 -2.7,1.414 -5.83,2.136 -9.04,2.128 -9.23,-0.152 -18.85,-4.972 -31.85,-14.828 -9.24,-7.093 -16.92,-14.742 -22.47,-22.121 -2.78,-3.695 -5.03,-7.328 -6.66,-10.914 -1.62,-3.59 -2.68,-7.137 -2.7,-10.906 -0.02,-3.016 0.81,-6.336 2.9,-9.043 l -0.01,0.016 c 1.69,-2.227 4.03,-3.782 6.41,-4.661 2.39,-0.886 4.84,-1.203 7.32,-1.207 6.48,0.039 13.5,2.102 21.15,5.528 7.62,3.453 15.77,8.367 23.81,14.535 7.59,5.824 13,11.312 16.67,16.711 3.65,5.371 5.57,10.812 5.57,16.098 0.02,4.992 -1.8,9.546 -4.47,13.003 l -0.01,0.012 -5.55,-4.265"
       style="fill:#231f20;fill-opacity:1;fill-rule:nonzero;stroke:none"
       id="path244"
       inkscape:connector-curvature="0" /><path
       d="m 2074.88,704.488 c 5.86,-7.648 -2.15,-23.617 -26.22,-42.082 -24.07,-18.457 -48.3,-27.234 -54.17,-19.597 -5.87,7.644 8.89,28.796 32.96,47.261 24.07,18.461 41.56,22.051 47.43,14.418"
       style="fill:#fcd0b4;fill-opacity:1;fill-rule:nonzero;stroke:none"
       id="path246"
       inkscape:connector-curvature="0" /><path
       d="m 2074.88,704.488 -5.56,-4.258 c 0.2,-0.3 0.37,-0.542 0.39,-1.539 0.09,-1.836 -1.31,-6.222 -5.47,-11.675 -4.1,-5.477 -10.69,-12.036 -19.84,-19.055 -8.72,-6.695 -17.47,-12.039 -25.07,-15.629 -7.55,-3.621 -14.14,-5.344 -17.5,-5.281 -1.07,-0.004 -1.75,0.156 -1.97,0.246 l -0.1,0.039 -0.41,-0.793 0.69,0.527 -0.28,0.266 -0.41,-0.793 0.69,0.527 -0.83,-0.632 1.01,0.3 -0.18,0.332 -0.83,-0.632 1.01,0.3 -0.02,0.309 c -0.03,0.734 0.41,2.816 1.74,5.469 3.94,8.125 15.01,20.75 29.77,32.004 7.82,6 14.82,10.273 20.66,12.972 5.83,2.719 10.52,3.785 13.35,3.758 1.35,0 2.25,-0.219 2.76,-0.43 l 0.85,-0.597 -0.01,0.007 5.56,4.258 5.55,4.266 c -1.71,2.242 -4.06,3.969 -6.62,5.012 -2.56,1.05 -5.29,1.48 -8.09,1.484 -5.87,-0.027 -12.17,-1.805 -19.23,-5.051 -7.05,-3.265 -14.83,-8.078 -23.3,-14.57 -10.66,-8.188 -19.59,-16.859 -26.04,-25.02 -3.23,-4.089 -5.85,-8.043 -7.76,-11.89 -1.88,-3.864 -3.16,-7.598 -3.19,-11.672 -0.02,-2.805 0.75,-5.942 2.73,-8.5 1.62,-2.117 3.85,-3.578 6.09,-4.387 2.24,-0.824 4.52,-1.105 6.81,-1.109 7.03,0.062 14.76,2.551 23.49,6.625 8.67,4.101 18.15,9.933 27.6,17.176 9.91,7.613 17.35,14.894 22.51,21.757 5.1,6.883 8.2,13.321 8.28,20.082 0.03,3.52 -1.04,7.172 -3.28,10.051 l 0,0.012 -5.55,-4.266"
       style="fill:#231f20;fill-opacity:1;fill-rule:nonzero;stroke:none"
       id="path248"
       inkscape:connector-curvature="0" /><path
       d="m 2077.15,659.723 c 5.87,-7.649 -2.14,-23.606 -26.22,-42.071 -24.05,-18.468 -48.3,-27.226 -54.17,-19.589 -5.85,7.656 8.89,28.796 32.97,47.246 24.07,18.472 41.55,22.058 47.42,14.414"
       style="fill:#fcd0b4;fill-opacity:1;fill-rule:nonzero;stroke:none"
       id="path250"
       inkscape:connector-curvature="0" /><path
       d="m 2077.15,659.723 -5.55,-4.262 c 0.2,-0.301 0.37,-0.543 0.39,-1.539 0.09,-1.832 -1.31,-6.219 -5.47,-11.668 -4.1,-5.473 -10.69,-12.031 -19.85,-19.051 -8.71,-6.695 -17.45,-12.039 -25.05,-15.625 -7.55,-3.617 -14.14,-5.34 -17.5,-5.277 -1.08,-0.004 -1.76,0.16 -1.99,0.246 l -0.09,0.043 -0.41,-0.789 0.68,0.523 -0.27,0.266 -0.41,-0.789 0.68,0.523 0.01,-0.011 -0.81,-0.625 0.99,0.296 -0.18,0.329 -0.81,-0.625 0.99,0.296 -0.02,0.313 c -0.03,0.738 0.41,2.82 1.74,5.469 3.93,8.125 15,20.742 29.77,31.984 l 0,0.004 c 7.82,6.004 14.82,10.281 20.66,12.98 5.82,2.723 10.51,3.786 13.34,3.758 1.35,0 2.25,-0.219 2.76,-0.429 l 0.85,-0.606 5.55,4.266 5.56,4.261 c -1.71,2.243 -4.07,3.977 -6.62,5.02 -2.57,1.055 -5.3,1.488 -8.1,1.488 -5.87,-0.027 -12.17,-1.804 -19.23,-5.054 -7.04,-3.266 -14.82,-8.083 -23.29,-14.579 l 0,0.004 c -10.66,-8.175 -19.59,-16.847 -26.05,-25.004 -3.23,-4.089 -5.84,-8.046 -7.75,-11.894 -1.88,-3.86 -3.15,-7.598 -3.19,-11.668 -0.02,-2.797 0.75,-5.926 2.72,-8.484 l 0.01,-0.016 c 1.62,-2.117 3.85,-3.578 6.09,-4.387 2.25,-0.82 4.52,-1.101 6.82,-1.109 7.02,0.062 14.76,2.547 23.48,6.621 8.68,4.101 18.15,9.93 27.6,17.176 9.9,7.605 17.35,14.886 22.51,21.746 5.1,6.879 8.2,13.316 8.28,20.078 0.03,3.519 -1.04,7.18 -3.28,10.062 l -5.56,-4.261"
       style="fill:#231f20;fill-opacity:1;fill-rule:nonzero;stroke:none"
       id="path252"
       inkscape:connector-curvature="0" /><path
       d="m 2072.1,608.961 c 5.16,-6.711 7.48,-14.504 -12.47,-29.785 -19.96,-15.324 -40.29,-22.297 -45.44,-15.586 -5.14,6.695 6.86,24.519 26.82,39.851 19.96,15.286 25.95,12.215 31.09,5.52"
       style="fill:#fcd0b4;fill-opacity:1;fill-rule:nonzero;stroke:none"
       id="path254"
       inkscape:connector-curvature="0" /><path
       d="m 2072.1,608.961 -5.55,-4.266 c 1.69,-2.195 2.15,-3.472 2.14,-4.445 -0.01,-0.805 -0.23,-2.219 -2.14,-4.895 -1.88,-2.628 -5.42,-6.226 -11.17,-10.625 -7.03,-5.402 -14.1,-9.683 -20.26,-12.539 -6.12,-2.878 -11.48,-4.207 -14.17,-4.156 -0.93,-0.004 -1.48,0.141 -1.6,0.192 l -0.03,0.007 -0.62,-1.187 1.05,0.801 -0.43,0.386 -0.62,-1.187 1.05,0.801 0,0.004 -1.18,-0.903 1.43,0.43 -0.25,0.473 -1.18,-0.903 1.43,0.43 -0.29,-0.086 0.3,0.043 -0.01,0.043 -0.29,-0.086 0.3,0.043 -0.01,0.168 c -0.03,0.504 0.29,2.144 1.33,4.289 3.05,6.574 11.95,16.961 23.94,26.098 l 0,-0.008 c 5.03,3.859 9.01,6.375 11.96,7.816 2.96,1.461 4.81,1.785 5.66,1.77 l 1.39,-0.399 c 0.49,-0.312 1.29,-1.082 2.27,-2.375 l 5.55,4.266 5.56,4.262 c -1.45,1.867 -3.16,3.851 -5.63,5.507 -2.45,1.661 -5.74,2.774 -9.14,2.739 -3.84,-0.012 -7.66,-1.164 -11.82,-3.199 -4.18,-2.051 -8.8,-5.051 -14.31,-9.27 l -0.01,-0.008 c -8.84,-6.797 -16.23,-14.047 -21.59,-20.969 -2.68,-3.472 -4.87,-6.859 -6.47,-10.207 -1.57,-3.355 -2.66,-6.664 -2.69,-10.312 -0.02,-2.676 0.73,-5.707 2.64,-8.18 l 0,0.004 c 1.55,-2.039 3.7,-3.449 5.84,-4.23 2.15,-0.789 4.31,-1.059 6.47,-1.063 6.17,0.055 12.75,2.113 20.06,5.457 7.26,3.375 15.1,8.16 22.89,14.129 6.42,4.934 10.91,9.27 14,13.543 3.08,4.231 4.8,8.688 4.79,13.086 -0.02,5.668 -2.7,9.945 -5.04,12.977 l -5.55,-4.266"
       style="fill:#231f20;fill-opacity:1;fill-rule:nonzero;stroke:none"
       id="path256"
       inkscape:connector-curvature="0" /><path
       d="M 365.703,429.84 C 366.84,414.289 355.051,400.641 339.496,399.5 L 101.695,382.121 C 86.1445,380.98 72.4961,392.781 71.3555,408.32 L 41.3164,819.43 c -1.1367,15.547 10.6563,29.199 26.207,30.34 l 237.7856,17.375 c 15.55,1.14 29.199,-10.657 30.336,-26.204 L 365.703,429.84"
       style="fill:#ffffff;fill-opacity:1;fill-rule:nonzero;stroke:none"
       id="path258"
       inkscape:connector-curvature="0" /><path
       d="m 365.703,429.84 -6.98,-0.508 0.054,-1.562 c 0.024,-11 -8.648,-20.5 -19.793,-21.29 l 0.004,0 -237.804,-17.378 0,0 -1.5707,-0.051 C 88.6211,389.02 79.1211,397.699 78.3398,408.84 l -30.039,411.098 -0.0586,1.562 c -0.0234,10.992 8.6484,20.5 19.793,21.289 l 0,0 237.7808,17.371 0.004,0 1.567,0.059 c 10.992,0.023 20.492,-8.649 21.277,-19.789 l 30.059,-411.098 6.98,0.508 6.981,0.512 -30.059,411.101 c -1.391,18.559 -16.887,32.742 -35.238,32.766 l -2.59,-0.094 0,0 -237.7814,-17.375 -0.0039,0 C 48.4453,855.355 34.2656,839.848 34.2422,821.5 L 34.3359,818.918 64.375,407.809 C 65.7656,389.25 81.2617,375.07 99.6133,375.051 l 2.5937,0.09 -0.004,0 237.805,17.379 0.004,0 c 18.566,1.39 32.746,16.902 32.765,35.25 l -0.093,2.582 -6.981,-0.512"
       style="fill:#393536;fill-opacity:1;fill-rule:nonzero;stroke:none"
       id="path260"
       inkscape:connector-curvature="0" /><g
       id="g262"><g
         id="g264"
         clip-path="url(#clipPath266)"><path
           d="m 119.957,422.52 c -14.68,0 -27.1836,11.429 -28.2734,26.281 L 64.4688,821.117 c -0.6211,8.469 2.5976,16.379 8.1718,22.008 4.6563,4.703 10.9532,7.813 18.0313,8.336 L 234.617,861.98 265.973,433.109 122.02,422.59 c -0.692,-0.051 -1.379,-0.07 -2.063,-0.07 m 185.91,13.511 -31.355,428.864 7.644,0.558 c 0.699,0.051 1.395,0.078 2.082,0.078 6.309,0 12.215,-2.113 16.989,-5.707 6.324,-4.758 10.648,-12.109 11.269,-20.57 l 27.215,-372.332 c 1.141,-15.551 -10.652,-29.203 -26.203,-30.332 l -7.641,-0.559"
           style="fill:url(#linearGradient270);fill-opacity:1;fill-rule:nonzero;stroke:none"
           id="path276"
           inkscape:connector-curvature="0" /></g></g><path
       d="m 267.223,416.031 -1.25,17.078 39.894,2.922 1.246,-17.09 -39.89,-2.91"
       style="fill:#ffffff;fill-opacity:1;fill-rule:nonzero;stroke:none"
       id="path278"
       inkscape:connector-curvature="0" /><path
       d="m 234.105,868.961 -1.074,14.711 39.895,2.918 1.074,-14.715 -39.895,-2.914"
       style="fill:#ffffff;fill-opacity:1;fill-rule:nonzero;stroke:none"
       id="path280"
       inkscape:connector-curvature="0" /><path
       d="m 234.617,861.98 -0.512,6.981 39.895,2.914 0.512,-6.98 -39.895,-2.915"
       style="fill:#cecdcd;fill-opacity:1;fill-rule:nonzero;stroke:none"
       id="path282"
       inkscape:connector-curvature="0" /><g
       id="g284"><g
         id="g286"
         clip-path="url(#clipPath288)"><path
           d="m 265.973,433.109 -31.356,428.871 39.895,2.915 31.355,-428.864 -39.894,-2.922"
           style="fill:url(#linearGradient292);fill-opacity:1;fill-rule:nonzero;stroke:none"
           id="path298"
           inkscape:connector-curvature="0" /></g></g><path
       d="M 119.723,920.609 C 98.1484,907.191 82.7969,892.406 62.8867,891.625 35.707,890.531 2.41797,865.578 20.6875,838.344 c 13.9063,-20.75 54.1914,-13.426 65.1172,-20.508 16.5743,-10.703 20.9573,-28.359 43.3983,-27.02 26.524,1.551 21.992,23.106 38.281,33.004 13.77,8.364 36.114,-10.449 57.805,-7.742 25.391,3.195 38.895,30.91 55.664,24.082 16.777,-6.816 54.707,0.598 65.274,17.988 13.211,21.739 2.734,54.192 -32.805,54.051 -38.055,-0.144 -55.938,2.485 -78.887,16.614 -22.957,14.152 -90.039,7.199 -114.812,-8.204"
       style="fill:#ffffff;fill-opacity:1;fill-rule:nonzero;stroke:none"
       id="path300"
       inkscape:connector-curvature="0" /><path
       d="m 119.723,920.609 -3.7,5.946 c -11.125,-6.93 -20.4097,-14.012 -28.9722,-19.192 -8.5977,-5.211 -16.2031,-8.422 -24.4414,-8.742 l -0.0039,0 C 50.1172,898.078 37.2109,893.41 26.8711,885.875 21.7109,882.086 17.1914,877.543 13.8672,872.23 10.5469,866.938 8.44531,860.781 8.45313,854.195 8.4375,847.637 10.5664,840.836 14.875,834.445 l 0,0 c 4.4766,-6.683 10.9766,-10.898 17.7344,-13.57 10.1836,-4.008 21.3476,-5.008 30.832,-5.883 4.7305,-0.422 9.0391,-0.789 12.3906,-1.324 3.3477,-0.488 5.7227,-1.344 6.168,-1.707 l 0.0078,-0.004 c 6.793,-4.344 11.5625,-10.512 17.8047,-16.586 3.1255,-3 6.7035,-5.949 11.1835,-8.137 4.473,-2.195 9.789,-3.507 15.848,-3.492 0.906,0 1.832,0.028 2.773,0.086 l -0.004,0 c 7.559,0.422 13.664,2.41 18.379,5.598 7.113,4.832 10.391,11.453 13.321,16.582 2.96,5.293 5.414,9.164 9.808,11.832 l -0.004,0 c 1.254,0.75 2.653,1.129 4.797,1.14 4.316,0.079 11.125,-2.113 18.824,-4.726 7.739,-2.547 16.516,-5.414 26.11,-5.445 1.75,0 3.519,0.101 5.304,0.324 l 0.008,0 c 13.473,1.73 23.485,9.012 31.52,14.988 4.019,3.016 7.597,5.758 10.664,7.555 3.09,1.832 5.461,2.582 7.222,2.562 0.891,-0.004 1.715,-0.148 2.747,-0.562 l 0.003,0 c 5.43,-2.18 11.657,-3.008 18.336,-3.028 10.071,0.016 21.149,1.997 31.161,5.813 9.953,3.871 19.054,9.437 24.394,18.055 4.336,7.132 6.516,15.207 6.516,23.218 0.007,10.422 -3.735,20.879 -11.469,28.731 -7.711,7.875 -19.309,12.777 -33.609,12.738 l -0.262,-0.004 0.012,0 c -0.957,0 -1.903,-0.004 -2.832,-0.004 -17.883,-0.004 -30.84,0.723 -41.743,2.996 -10.906,2.289 -19.922,6.016 -30.613,12.582 l 0.004,0 c -5.496,3.36 -12.141,5.407 -19.598,6.778 -7.453,1.347 -15.734,1.945 -24.375,1.945 -14.207,-0.004 -29.383,-1.625 -43.164,-4.5 -13.801,-2.91 -26.121,-6.933 -35.047,-12.441 l -0.004,0 3.7,-5.946 3.695,-5.945 c 6.477,4.07 17.746,7.988 30.516,10.629 12.789,2.676 27.168,4.207 40.304,4.203 7.985,0.004 15.512,-0.566 21.879,-1.723 6.367,-1.136 11.559,-2.929 14.746,-4.918 l 0.004,-0.003 c 11.672,-7.207 22.613,-11.786 35.106,-14.368 12.492,-2.589 26.363,-3.285 44.59,-3.289 0.949,0 1.914,0.004 2.886,0.004 l 0.012,0.004 0.184,0 c 11.257,-0.043 18.699,-3.594 23.636,-8.562 4.918,-4.993 7.434,-11.766 7.442,-18.907 0.004,-5.464 -1.504,-11.058 -4.481,-15.949 -2.597,-4.449 -9.156,-9.137 -17.437,-12.25 -8.227,-3.164 -17.965,-4.898 -26.153,-4.887 -5.41,-0.015 -10.144,0.786 -13.066,1.997 l 0.008,0 c -2.625,1.074 -5.375,1.597 -8.028,1.593 -5.472,-0.019 -10.171,-2.058 -14.332,-4.5 -6.25,-3.722 -11.847,-8.621 -17.839,-12.656 -5.985,-4.062 -12.094,-7.199 -18.981,-8.059 l 0.008,0 c -1.168,-0.144 -2.359,-0.214 -3.574,-0.214 -6.653,-0.028 -14.133,2.191 -21.696,4.73 -7.601,2.469 -15.136,5.363 -23.238,5.441 -3.98,0.016 -8.242,-0.843 -12.062,-3.175 l -0.004,0 c -5.184,-3.137 -8.723,-7.297 -11.321,-11.231 -3.871,-5.961 -6.148,-11.336 -9.132,-14.648 -1.481,-1.688 -3.024,-2.965 -5.211,-4.016 -2.188,-1.035 -5.121,-1.855 -9.387,-2.105 l -0.008,-0.004 -1.945,-0.059 c -4.153,0.016 -7.071,0.805 -9.711,2.074 -3.93,1.891 -7.438,5.289 -11.629,9.735 -4.184,4.39 -9.0079,9.707 -15.9024,14.164 l 0.0117,-0.004 c -4.8633,2.984 -10,3.594 -15.8399,4.352 -8.6875,0.98 -18.8711,1.414 -27.7539,3.378 -4.4257,0.965 -8.4804,2.301 -11.7851,4.079 -3.3164,1.789 -5.8594,3.941 -7.7305,6.722 l -0.0039,0 c -2.9766,4.473 -4.0352,8.356 -4.0469,11.953 0.0039,3.61 1.1094,7.121 3.2852,10.618 3.2383,5.226 8.9961,10.191 15.832,13.761 6.8164,3.598 14.6485,5.789 21.5977,6.059 l -0.0078,0 c 11.6757,0.457 21.7031,5.027 31.1484,10.762 9.4884,5.761 18.6644,12.785 29.1094,19.273 l 0,-0.004 -3.695,5.945"
       style="fill:#918f90;fill-opacity:1;fill-rule:nonzero;stroke:none"
       id="path302"
       inkscape:connector-curvature="0" /><path
       d="m 704.004,779.195 c 88.633,0 134.25,17.539 134.25,17.539 0.769,-41.664 -11.66,-207.5 -129.824,-207.5 -118.157,0 -130.598,165.836 -129.817,207.5 0,0 36.778,-17.539 125.391,-17.539"
       style="fill:#eb4b7c;fill-opacity:1;fill-rule:nonzero;stroke:none"
       id="path304"
       inkscape:connector-curvature="0" /><path
       d="m 709.98,750.07 c 45.469,0 87.266,-14.625 120.911,-36.25 6.355,31.313 7.625,68.813 7.363,82.914 0,0 -45.617,-17.539 -134.25,-17.539 -88.613,0 -125.391,17.539 -125.391,17.539 -0.273,-14.375 1.035,-52.66 7.703,-84.648 32.329,24.234 76.965,37.984 123.664,37.984"
       style="fill:#c2434f;fill-opacity:1;fill-rule:nonzero;stroke:none"
       id="path306"
       inkscape:connector-curvature="0" /><path
       d="m 704.004,779.195 0,-7 c 89.559,-0.004 136.055,17.731 136.762,18.004 l -2.512,6.535 -7,-0.132 c 0.019,-1.067 0.031,-2.223 0.031,-3.469 0.031,-22.711 -3.719,-73.164 -21.301,-116.899 -8.761,-21.886 -20.933,-42.019 -37.371,-56.468 -16.48,-14.438 -37.039,-23.485 -64.183,-23.532 -27.137,0.047 -47.692,9.086 -64.168,23.52 -24.672,21.617 -39.668,56.223 -48.121,89.957 -8.496,33.684 -10.571,66.336 -10.559,83.383 0,1.258 0.012,2.429 0.031,3.508 l -7,0.132 -3.011,-6.32 c 0.988,-0.476 38.871,-18.226 128.402,-18.219 l 0,14 c -43.844,0 -74.691,4.336 -94.445,8.61 -9.879,2.136 -16.985,4.258 -21.559,5.812 -2.289,0.781 -3.941,1.418 -4.996,1.848 l -1.129,0.476 -0.234,0.102 -0.016,0.008 c -2.152,1.027 -4.66,0.89 -6.691,-0.363 -2.032,-1.254 -3.274,-3.438 -3.321,-5.825 -0.019,-1.172 -0.031,-2.429 -0.031,-3.769 0.031,-24.117 3.715,-75.606 22.313,-122.106 9.328,-23.23 22.433,-45.285 41.121,-61.746 18.644,-16.472 43.062,-27.058 73.414,-27.008 30.355,-0.05 54.781,10.543 73.429,27.024 28.02,24.746 43.551,61.887 52.45,97.086 8.859,35.246 10.964,68.715 10.976,86.789 0,1.324 -0.012,2.57 -0.035,3.73 -0.043,2.293 -1.187,4.395 -3.09,5.676 -1.902,1.281 -4.277,1.551 -6.422,0.727 l -0.398,-0.145 c -4.656,-1.68 -49.11,-16.926 -131.336,-16.926 l 0,-7"
       style="fill:#231f20;fill-opacity:1;fill-rule:nonzero;stroke:none"
       id="path308"
       inkscape:connector-curvature="0" /><path
       d="m 1586.19,722.047 c 69.47,0 107.54,10.644 107.54,10.644 0.66,-31.132 -24.38,-177.851 -107.54,-177.851 -83.19,0 -108.19,146.719 -107.55,177.851 0,0 38.07,-10.644 107.55,-10.644"
       style="fill:#eb4b7c;fill-opacity:1;fill-rule:nonzero;stroke:none"
       id="path310"
       inkscape:connector-curvature="0" /><path
       d="m 1586.98,691.496 c 38.21,0 71.92,-15.367 91.86,-38.766 10.96,34.083 15.16,67.032 14.89,79.961 0,0 -38.07,-10.644 -107.54,-10.644 -69.48,0 -107.55,10.644 -107.55,10.644 -0.27,-13.125 4.06,-46.82 15.34,-81.386 19.79,24.179 54,40.191 93,40.191"
       style="fill:#c2434f;fill-opacity:1;fill-rule:nonzero;stroke:none"
       id="path312"
       inkscape:connector-curvature="0" /><path
       d="m 1586.19,722.047 0,-7 c 70.19,0 108.89,10.754 109.42,10.902 l -1.88,6.742 -7,-0.148 0.01,-1.105 c 0.01,-7.614 -1.52,-22.657 -5.12,-40.387 -5.38,-26.656 -15.45,-59.762 -31.29,-85.539 -7.91,-12.899 -17.21,-23.922 -27.83,-31.582 -10.65,-7.66 -22.47,-12.071 -36.31,-12.09 -18.43,0.039 -33.46,7.844 -46.52,20.836 -19.53,19.441 -33.39,50.707 -41.96,80.156 -8.62,29.363 -12.12,57.191 -12.08,68.656 l 0.01,1.047 -7,0.156 -1.89,-6.742 c 0.53,-0.148 39.25,-10.902 109.44,-10.902 l 0,14 c -34.38,0 -60.93,2.633 -78.82,5.246 -8.94,1.309 -15.72,2.609 -20.23,3.578 -2.26,0.484 -3.94,0.883 -5.05,1.156 l -1.22,0.313 -0.35,0.09 c -2.09,0.586 -4.31,0.175 -6.05,-1.117 -1.75,-1.297 -2.78,-3.297 -2.83,-5.469 l -0.01,-1.356 c 0.01,-9.172 1.65,-24.593 5.39,-43.125 5.62,-27.742 15.9,-62.07 33.06,-90.125 8.6,-14.019 18.95,-26.511 31.57,-35.644 12.59,-9.129 27.58,-14.778 44.54,-14.754 22.63,-0.043 41.58,10.035 56.39,24.914 22.27,22.367 36.46,55.387 45.49,86.066 8.98,30.766 12.64,58.91 12.67,72.618 l -0.02,1.398 c -0.04,2.176 -1.08,4.18 -2.82,5.473 -1.75,1.296 -3.97,1.707 -6.06,1.121 l -0.34,-0.09 c -3.93,-1.035 -40.85,-10.293 -105.31,-10.293 l 0,-7"
       style="fill:#231f20;fill-opacity:1;fill-rule:nonzero;stroke:none"
       id="path314"
       inkscape:connector-curvature="0" /><path
       d="m 171.66,680.758 c 0,-8.606 -6.988,-15.586 -15.605,-15.586 -8.61,0 -15.602,6.98 -15.602,15.586 0,8.633 6.992,15.605 15.602,15.605 8.617,0 15.605,-6.972 15.605,-15.605"
       style="fill:#ffffff;fill-opacity:1;fill-rule:nonzero;stroke:none"
       id="path316"
       inkscape:connector-curvature="0" /><path
       d="m 221.891,574.445 c 0,-6.89 -5.602,-12.5 -12.504,-12.5 -6.903,0 -12.5,5.61 -12.5,12.5 0,6.918 5.597,12.5 12.5,12.5 6.902,0 12.504,-5.582 12.504,-12.5"
       style="fill:#ffffff;fill-opacity:1;fill-rule:nonzero;stroke:none"
       id="path318"
       inkscape:connector-curvature="0" /><path
       d="m 168.563,509.219 c 0,-6.887 -5.598,-12.5 -12.504,-12.5 -6.899,0 -12.5,5.613 -12.5,12.5 0,6.918 5.601,12.504 12.5,12.504 6.906,0 12.504,-5.586 12.504,-12.504"
       style="fill:#ffffff;fill-opacity:1;fill-rule:nonzero;stroke:none"
       id="path320"
       inkscape:connector-curvature="0" /><path
       d="m 232.281,723.305 c 0,-8.313 -6.738,-15.047 -15.054,-15.047 -8.305,0 -15.047,6.734 -15.047,15.047 0,8.332 6.742,15.058 15.047,15.058 8.316,0 15.054,-6.726 15.054,-15.058"
       style="fill:#ffffff;fill-opacity:1;fill-rule:nonzero;stroke:none"
       id="path322"
       inkscape:connector-curvature="0" /><path
       d="m 1944.9,764.145 c 0,-6.239 -5.06,-11.29 -11.29,-11.29 -6.24,0 -11.29,5.051 -11.29,11.29 0,6.25 5.05,11.3 11.29,11.3 6.23,0 11.29,-5.05 11.29,-11.3"
       style="fill:#ffffff;fill-opacity:1;fill-rule:nonzero;stroke:none"
       id="path324"
       inkscape:connector-curvature="0" /><path
       d="m 1972.5,692.055 c 0,-6.239 -5.06,-11.289 -11.29,-11.289 -6.24,0 -11.29,5.05 -11.29,11.289 0,6.25 5.05,11.3 11.29,11.3 6.23,0 11.29,-5.05 11.29,-11.3"
       style="fill:#ffffff;fill-opacity:1;fill-rule:nonzero;stroke:none"
       id="path326"
       inkscape:connector-curvature="0" /><path
       d="m 1930.67,620.246 c 0,-6.238 -5.06,-11.285 -11.29,-11.285 -6.24,0 -11.29,5.047 -11.29,11.285 0,6.25 5.05,11.301 11.29,11.301 6.23,0 11.29,-5.051 11.29,-11.301"
       style="fill:#ffffff;fill-opacity:1;fill-rule:nonzero;stroke:none"
       id="path328"
       inkscape:connector-curvature="0" /><path
       d="m 1949.86,512.848 c 0,-5.629 -4.57,-10.188 -10.19,-10.188 -5.63,0 -10.18,4.559 -10.18,10.188 0,5.632 4.55,10.195 10.18,10.195 5.62,0 10.19,-4.563 10.19,-10.195"
       style="fill:#ffffff;fill-opacity:1;fill-rule:nonzero;stroke:none"
       id="path330"
       inkscape:connector-curvature="0" /><path
       d="m 140.328,749.086 c 0,-8.816 -7.16,-15.984 -15.992,-15.984 -8.824,0 -15.992,7.168 -15.992,15.984 0,8.848 7.168,16.008 15.992,16.008 8.832,0 15.992,-7.16 15.992,-16.008"
       style="fill:#ffffff;fill-opacity:1;fill-rule:nonzero;stroke:none"
       id="path332"
       inkscape:connector-curvature="0" /><path
       d="m 651.496,1008.98 c -5.93,14.37 -13.812,28.61 -24.191,39.72 -10.293,11.04 -23.703,19.18 -39.649,19.17 -2.574,0 -5.195,-0.21 -7.843,-0.64 -11.493,-1.92 -21.864,-8.03 -31.254,-15.62 -14.055,-11.45 -26.063,-26.58 -34.766,-38.93 -8.684,-12.36 -13.973,-21.922 -14.07,-22.098 -2.137,-3.867 -0.735,-8.734 3.132,-10.871 3.864,-2.137 8.735,-0.734 10.872,3.133 l 0.371,0.656 c 1.941,3.422 11.445,19.64 24.515,35.38 6.524,7.86 13.946,15.6 21.551,21.51 7.606,5.95 15.356,9.96 22.223,11.04 1.816,0.3 3.566,0.44 5.269,0.44 10.289,-0.01 19.438,-5.08 27.977,-14.12 8.449,-8.98 15.672,-21.7 21.066,-34.85 1.68,-4.087 6.356,-6.037 10.442,-4.357 4.086,1.687 6.035,6.357 4.355,10.437"
       style="fill:#231f20;fill-opacity:1;fill-rule:nonzero;stroke:none"
       id="path334"
       inkscape:connector-curvature="0" /><path
       d="m 784.836,1002.9 c 5.394,13.15 12.613,25.87 21.062,34.85 8.536,9.04 17.684,14.11 27.977,14.12 1.699,0 3.453,-0.14 5.273,-0.44 7.321,-1.15 15.649,-5.64 23.731,-12.24 12.152,-9.85 23.582,-24.05 31.766,-35.72 4.101,-5.833 7.418,-11.032 9.691,-14.755 1.137,-1.86 2.016,-3.348 2.602,-4.363 l 0.66,-1.153 0.199,-0.355 c 2.137,-3.867 7.008,-5.27 10.875,-3.133 3.863,2.137 5.266,7.004 3.129,10.871 -0.137,0.238 -9.477,17.148 -23.828,35.128 -7.188,9 -15.625,18.27 -25.004,25.9 -9.387,7.59 -19.758,13.7 -31.246,15.62 -2.653,0.43 -5.274,0.64 -7.848,0.64 -15.949,0.01 -29.355,-8.13 -39.648,-19.17 -10.383,-11.11 -18.258,-25.35 -24.188,-39.72 -1.684,-4.08 0.266,-8.75 4.352,-10.437 4.086,-1.68 8.761,0.27 10.445,4.357"
       style="fill:#231f20;fill-opacity:1;fill-rule:nonzero;stroke:none"
       id="path336"
       inkscape:connector-curvature="0" /><path
       d="m 1544.06,884.473 c -0.14,0.41 -4.21,14.09 -13.33,28.312 -4.58,7.11 -10.45,14.403 -18.05,20.137 -7.56,5.723 -17.11,9.844 -28.11,9.824 -4.45,0 -9.08,-0.664 -13.84,-2.055 -21.92,-6.425 -40.12,-20.5 -53.35,-36.816 -13.21,-16.379 -21.63,-34.98 -23.41,-51.898 -0.45,-4.395 2.75,-8.321 7.15,-8.77 4.39,-0.449 8.32,2.754 8.77,7.148 1.24,12.758 8.36,29.243 19.92,43.45 11.54,14.265 27.34,26.273 45.41,31.527 3.4,0.992 6.48,1.41 9.35,1.414 7.02,-0.019 12.95,-2.473 18.49,-6.609 8.26,-6.16 14.97,-16.305 19.31,-24.942 2.18,-4.308 3.8,-8.218 4.86,-11.011 0.53,-1.395 0.92,-2.512 1.17,-3.258 l 0.27,-0.836 0.07,-0.219 c 1.27,-4.23 5.73,-6.633 9.96,-5.359 4.23,1.269 6.63,5.73 5.36,9.961"
       style="fill:#231f20;fill-opacity:1;fill-rule:nonzero;stroke:none"
       id="path338"
       inkscape:connector-curvature="0" /><path
       d="m 1407.97,873.246 -22.77,8.145 c -2.6,0.929 -5.46,-0.422 -6.39,-3.024 -0.93,-2.597 0.43,-5.461 3.03,-6.39 l 22.76,-8.145 c 2.6,-0.93 5.46,0.422 6.39,3.023 0.93,2.598 -0.42,5.461 -3.02,6.391"
       style="fill:#231f20;fill-opacity:1;fill-rule:nonzero;stroke:none"
       id="path340"
       inkscape:connector-curvature="0" /><path
       d="m 1644.26,879.871 0.02,0.074 c 0.33,1.121 4.42,13.676 12.18,25.313 3.87,5.824 8.63,11.371 13.99,15.262 5.4,3.906 11.17,6.207 17.98,6.226 2.86,-0.004 5.95,-0.422 9.35,-1.414 18.07,-5.254 33.87,-17.262 45.41,-31.527 11.56,-14.207 18.67,-30.692 19.92,-43.45 0.45,-4.394 4.38,-7.597 8.77,-7.148 4.4,0.449 7.6,4.375 7.15,8.77 -1.78,16.918 -10.2,35.519 -23.41,51.898 -13.23,16.316 -31.44,30.391 -53.35,36.816 -4.76,1.391 -9.4,2.055 -13.84,2.055 -11,0.02 -20.56,-4.101 -28.12,-9.824 -11.38,-8.625 -18.94,-20.656 -23.95,-30.504 -4.99,-9.859 -7.33,-17.641 -7.43,-17.945 -1.27,-4.231 1.13,-8.692 5.36,-9.961 4.24,-1.274 8.7,1.129 9.97,5.359"
       style="fill:#231f20;fill-opacity:1;fill-rule:nonzero;stroke:none"
       id="path342"
       inkscape:connector-curvature="0" /><path
       d="m 1768.4,863.832 22.76,8.145 c 2.6,0.929 3.96,3.793 3.03,6.39 -0.93,2.602 -3.8,3.953 -6.4,3.024 l -22.76,-8.145 c -2.6,-0.93 -3.95,-3.793 -3.02,-6.391 0.93,-2.601 3.79,-3.953 6.39,-3.023"
       style="fill:#231f20;fill-opacity:1;fill-rule:nonzero;stroke:none"
       id="path344"
       inkscape:connector-curvature="0" /></g></svg>